<svg width="300" height="22" viewBox="0 0 300 22" xmlns="http://www.w3.org/2000/svg"><g fill="#fff"><path d="M25.382 6.767c-2.236 0-3.445 1.092-3.445 2.613 0 1.403.936 1.988 2.678 2.586 1.339.456 2.21.664 2.21 1.626 0 .857-.78 1.442-2.093 1.442-.741 0-1.781-.182-2.574-.48l-.286 1.091c.78.313 1.963.534 2.873.534 2.106 0 3.367-1.014 3.367-2.652 0-1.574-1.144-2.094-2.964-2.692-1.131-.364-1.976-.637-1.976-1.534 0-.858.767-1.39 2.197-1.39.741 0 1.521.13 2.249.35l.26-1.079a7.67 7.67 0 00-2.496-.416zM34.976 14.645c-.676.299-1.209.455-1.924.455-1.456 0-2.314-.676-2.418-2.106h4.511c.065-.3.104-.715.104-.95 0-1.69-.988-2.677-2.691-2.677-1.911 0-3.12 1.403-3.12 3.392 0 2.068 1.235 3.42 3.406 3.42.884 0 1.703-.195 2.444-.611zm-2.47-4.303c.975 0 1.599.623 1.599 1.572v.105h-3.419c.208-.989.871-1.678 1.82-1.678zM40.982 9.523v5.096a3.46 3.46 0 01-1.677.455c-.962 0-1.404-.468-1.404-1.313V9.523h-1.196v4.524c0 1.326.806 2.132 2.288 2.132.858 0 1.612-.26 2.197-.624l.143.468h.832v-6.5zM49.991 9.367c-.793 0-1.404.246-1.898.623l-.156-.467h-.819v9.75h1.196V15.84c.429.22.962.338 1.56.338 1.885 0 3.159-1.391 3.159-3.484 0-2.068-1.183-3.329-3.042-3.329zm-.286 5.771c-.455 0-.949-.09-1.391-.35v-3.836c.455-.325.923-.507 1.469-.507 1.248 0 2.015.871 2.015 2.301 0 1.378-.767 2.392-2.093 2.392zM57.518 9.367a2.73 2.73 0 00-1.898.74l-.208-.584h-.832v6.5h1.196v-5.018a2.976 2.976 0 012.249-.417l.169-1.117a2.383 2.383 0 00-.676-.105zM64.278 14.645c-.676.299-1.209.455-1.924.455-1.456 0-2.314-.676-2.418-2.106h4.511c.065-.3.104-.715.104-.95 0-1.69-.988-2.677-2.691-2.677-1.911 0-3.12 1.403-3.12 3.392 0 2.068 1.235 3.42 3.406 3.42.884 0 1.703-.195 2.444-.611zm-2.47-4.303c.975 0 1.599.623 1.599 1.572v.105h-3.419c.208-.989.871-1.678 1.82-1.678zM68.464 9.367c-1.534 0-2.574.78-2.574 1.962 0 2.327 3.731 1.612 3.731 2.925 0 .52-.533.859-1.482.859-.65 0-1.365-.17-2.015-.416l-.338 1.014a6.313 6.313 0 002.34.467c1.742 0 2.665-.819 2.665-2.002 0-2.405-3.718-1.65-3.718-2.925 0-.546.507-.91 1.43-.91.52 0 1.105.091 1.794.312l.273-.936a6.808 6.808 0 00-2.106-.35zM77.512 14.645c-.676.299-1.209.455-1.924.455-1.456 0-2.314-.676-2.418-2.106h4.511c.065-.3.104-.715.104-.95 0-1.69-.988-2.677-2.691-2.677-1.911 0-3.12 1.403-3.12 3.392 0 2.068 1.235 3.42 3.406 3.42.884 0 1.703-.195 2.444-.611zm-2.47-4.303c.975 0 1.599.623 1.599 1.572v.105h-3.419c.208-.989.871-1.678 1.82-1.678zM82.582 9.367c-.897 0-1.664.285-2.236.662l-.169-.506h-.819v6.5h1.196v-5.07c.481-.26 1.105-.468 1.703-.468.962 0 1.417.455 1.417 1.3v4.238h1.183v-4.55c0-1.327-.806-2.107-2.275-2.107zM90.187 14.918a2.258 2.258 0 01-.793.156c-.78 0-1.196-.286-1.196-1.144v-3.354h1.963V9.523h-1.963v-1.95h-1.014l-.169 1.95H85.91v.962l1.105.09v3.55c0 1.404.819 2.054 2.015 2.054a3.09 3.09 0 001.378-.286zM96.726 14.645c-.676.299-1.209.455-1.924.455-1.456 0-2.314-.676-2.418-2.106h4.511c.065-.3.104-.715.104-.95 0-1.69-.988-2.677-2.691-2.677-1.911 0-3.12 1.403-3.12 3.392 0 2.068 1.235 3.42 3.406 3.42.884 0 1.703-.195 2.444-.611zm-2.47-4.303c.975 0 1.599.623 1.599 1.572v.105h-3.419c.208-.989.871-1.678 1.82-1.678zM104.448 9.367c-.793 0-1.404.246-1.898.623l-.156-.467h-.819v9.75h1.196V15.84c.429.22.962.338 1.56.338 1.885 0 3.159-1.391 3.159-3.484 0-2.068-1.183-3.329-3.042-3.329zm-.286 5.771c-.455 0-.949-.09-1.391-.35v-3.836c.455-.325.923-.507 1.469-.507 1.248 0 2.015.871 2.015 2.301 0 1.378-.767 2.392-2.093 2.392zM111.091 9.367c-.728 0-1.56.13-2.314.35l.221 1.002a6.835 6.835 0 011.846-.286c1.118 0 1.677.442 1.677 1.3v.48h-1.417c-1.651 0-2.483.755-2.483 1.977 0 1.144.871 1.989 2.34 1.989.741 0 1.326-.208 1.807-.572l.195.416h.741v-4.498c0-1.313-.741-2.158-2.613-2.158zm-1.261 4.784c0-.637.416-1.014 1.378-1.014h1.313v1.703a2.785 2.785 0 01-1.365.364c-.793 0-1.326-.43-1.326-1.053zM118.488 9.367a2.73 2.73 0 00-1.898.74l-.208-.584h-.832v6.5h1.196v-5.018a2.976 2.976 0 012.249-.417l.169-1.117a2.383 2.383 0 00-.676-.105zM122.349 9.367c-.728 0-1.56.13-2.314.35l.221 1.002a6.835 6.835 0 011.846-.286c1.118 0 1.677.442 1.677 1.3v.48h-1.417c-1.651 0-2.483.755-2.483 1.977 0 1.144.871 1.989 2.34 1.989.741 0 1.326-.208 1.807-.572l.195.416h.741v-4.498c0-1.313-.741-2.158-2.613-2.158zm-1.261 4.784c0-.637.416-1.014 1.378-1.014h1.313v1.703a2.785 2.785 0 01-1.365.364c-.793 0-1.326-.43-1.326-1.053zM133.347 14.918a2.258 2.258 0 01-.793.156c-.78 0-1.196-.286-1.196-1.144v-3.354h1.963V9.523h-1.963v-1.95h-1.014l-.169 1.95h-1.105v.962l1.105.09v3.55c0 1.404.819 2.054 2.015 2.054a3.09 3.09 0 001.378-.286zM139.886 14.645c-.676.299-1.209.455-1.924.455-1.456 0-2.314-.676-2.418-2.106h4.511c.065-.3.104-.715.104-.95 0-1.69-.988-2.677-2.691-2.677-1.911 0-3.12 1.403-3.12 3.392 0 2.068 1.235 3.42 3.406 3.42.884 0 1.703-.195 2.444-.611zm-2.47-4.303c.975 0 1.599.623 1.599 1.572v.105h-3.419c.208-.989.871-1.678 1.82-1.678zM144.67 9.367a2.73 2.73 0 00-1.898.74l-.208-.584h-.832v6.5h1.196v-5.018a2.976 2.976 0 012.249-.417l.169-1.117a2.383 2.383 0 00-.676-.105zM153.64 9.523v5.096a3.46 3.46 0 01-1.677.455c-.962 0-1.404-.468-1.404-1.313V9.523h-1.196v4.524c0 1.326.806 2.132 2.288 2.132.858 0 1.612-.26 2.197-.624l.143.468h.832v-6.5zM164.053 9.367a3.99 3.99 0 00-2.327.727c-.364-.467-.975-.727-1.846-.727-.741 0-1.495.246-2.119.65l-.169-.494h-.819v6.5h1.183v-5.11a3.49 3.49 0 011.573-.403c1.014 0 1.43.442 1.43 1.287v4.225h1.183v-4.575c0-.195-.013-.377-.052-.546a3.41 3.41 0 011.625-.39c.923 0 1.443.455 1.443 1.287v4.225h1.183V11.42c0-1.274-.871-2.054-2.288-2.054z"/></g><g fill="#fff"><path d="M177.729 9.393l-2.158.285c-.468-.22-1.066-.338-1.794-.338-1.924 0-3.068 1.002-3.068 2.419 0 .91.468 1.586 1.3 1.963-.494.299-.78.767-.78 1.326 0 .39.143.702.364.962-.559.22-1.079.715-1.079 1.469 0 1.209 1.066 1.976 3.172 1.976 2.171 0 3.705-1.131 3.705-2.691 0-1.17-.754-1.937-2.405-1.937h-1.456c-.364 0-.598-.117-.598-.403 0-.208.117-.338.312-.416.156.013.312.026.481.026 1.963 0 3.094-.936 3.094-2.366 0-.247-.026-.468-.091-.676l1.001.156zm-3.965 3.236c-.624 0-1.001-.363-1.001-.935 0-.573.39-.95 1.04-.95.598 0 .975.378.975.95 0 .571-.39.935-1.014.935zm.702 4.03c.559 0 .78.13.78.52 0 .456-.572.807-1.534.807-.819 0-1.3-.273-1.3-.741 0-.3.117-.494.312-.637.182.039.377.052.572.052zM181.889 9.34c-.689 0-1.261.26-1.729.742l-.312-.56h-1.339v6.5h2.054v-4.614a2.805 2.805 0 011.144-.221c.234 0 .429.026.715.09l.286-1.78a2.415 2.415 0 00-.819-.157zM186.049 9.34c-.858 0-1.794.13-2.652.378l.325 1.599a7.406 7.406 0 011.768-.247c.962 0 1.43.325 1.43 1.014v.104h-1.157c-1.664 0-2.548.78-2.548 2.001 0 1.17.936 2.016 2.405 2.016.78 0 1.339-.195 1.82-.572l.273.39h1.261v-4.355c0-1.326-.819-2.327-2.925-2.327zm-.728 4.733c0-.377.26-.624.819-.624h.78v1.118a1.865 1.865 0 01-.754.156c-.533 0-.845-.26-.845-.65zM194.07 9.34c-.858 0-1.612.248-2.197.638l-.247-.455H190.3v6.5h2.054v-4.797c.325-.118.689-.209 1.04-.209.624 0 .897.3.897.872v4.134h2.054V11.42c0-1.287-.832-2.08-2.275-2.08zM201.753 6.273v3.25a3.274 3.274 0 00-1.131-.182c-1.898 0-3.237 1.417-3.237 3.51 0 2.08 1.287 3.353 3.133 3.353.767 0 1.313-.22 1.742-.572l.208.39h1.326v-9.75zm-2.249 6.513c0-1.131.546-1.86 1.456-1.86.273 0 .533.053.793.157v3.25c-.247.143-.52.22-.832.22-.858 0-1.417-.688-1.417-1.767zM210.827 14.229c-.637.22-1.131.312-1.716.312-1.118 0-1.807-.378-2.028-1.249h3.952c.117-.402.156-.91.156-1.208 0-1.742-1.053-2.743-2.834-2.743-2.106 0-3.406 1.43-3.406 3.445 0 2.093 1.339 3.419 3.744 3.419.897 0 1.755-.156 2.522-.546zm-2.548-3.445c.585 0 1.001.441 1.001 1.026v.092h-2.197c.169-.676.598-1.118 1.196-1.118zM218.419 9.34c-.767 0-1.313.222-1.742.573l-.208-.39h-1.326v9.75h2.054v-3.25a3.25 3.25 0 001.118.182c1.911 0 3.237-1.417 3.237-3.51 0-2.08-1.274-3.355-3.133-3.355zm-.429 5.279c-.273 0-.533-.052-.793-.156V11.2c.247-.13.507-.208.832-.208.858 0 1.404.688 1.404 1.767 0 1.132-.533 1.86-1.443 1.86zM225.881 14.437c-.13.052-.26.078-.416.078-.429 0-.689-.196-.689-.742v-7.5h-2.041v7.943c0 1.417.806 1.989 1.963 1.989.598 0 1.014-.104 1.469-.3zM229.521 9.34c-.858 0-1.794.13-2.652.378l.325 1.599a7.406 7.406 0 011.768-.247c.962 0 1.43.325 1.43 1.014v.104h-1.157c-1.664 0-2.548.78-2.548 2.001 0 1.17.936 2.016 2.405 2.016.78 0 1.339-.195 1.82-.572l.273.39h1.261v-4.355c0-1.326-.819-2.327-2.925-2.327zm-.728 4.733c0-.377.26-.624.819-.624h.78v1.118a1.865 1.865 0 01-.754.156c-.533 0-.845-.26-.845-.65zM237.542 9.34c-.858 0-1.612.248-2.197.638l-.247-.455h-1.326v6.5h2.054v-4.797c.325-.118.689-.209 1.04-.209.624 0 .897.3.897.872v4.134h2.054V11.42c0-1.287-.832-2.08-2.275-2.08zM244.185 16.204c2.054 0 3.328-1.39 3.328-3.484 0-2.197-1.261-3.38-3.289-3.38-2.119 0-3.367 1.352-3.367 3.55 0 2.08 1.261 3.314 3.328 3.314zm0-1.625c-.78 0-1.235-.676-1.235-1.78 0-1.145.468-1.834 1.274-1.834.754 0 1.196.69 1.196 1.833 0 1.105-.455 1.781-1.235 1.781zM254.884 9.34c-2.379 0-3.77 1.353-3.77 3.524 0 2.092 1.391 3.34 3.549 3.34a6.25 6.25 0 002.002-.325l-.312-1.611c-.429.116-.806.181-1.17.181-1.248 0-1.95-.584-1.95-1.637 0-1.066.741-1.73 1.924-1.73.338 0 .702.052 1.118.156l.273-1.69a6.944 6.944 0 00-1.664-.207zM260.578 16.204c2.054 0 3.328-1.39 3.328-3.484 0-2.197-1.261-3.38-3.289-3.38-2.119 0-3.367 1.352-3.367 3.55 0 2.08 1.261 3.314 3.328 3.314zm0-1.625c-.78 0-1.235-.676-1.235-1.78 0-1.145.468-1.834 1.274-1.834.754 0 1.196.69 1.196 1.833 0 1.105-.455 1.781-1.235 1.781zM272.616 9.34c-.78 0-1.534.222-2.145.612-.377-.39-.962-.611-1.729-.611a4.08 4.08 0 00-2.145.61l-.221-.428h-1.326v6.5h2.041v-4.81a2.78 2.78 0 01.936-.17c.663 0 .923.3.923.859v4.12h2.041v-4.614c0-.065 0-.143-.013-.208.299-.104.611-.156.936-.156.637 0 .923.311.923.857v4.122h2.041v-4.641c0-1.248-.845-2.041-2.262-2.041zM277.244 11.915c.689 0 1.183-.494 1.183-1.17 0-.69-.494-1.183-1.183-1.183-.676 0-1.183.494-1.183 1.183 0 .676.507 1.17 1.183 1.17zm0 4.29c.689 0 1.183-.507 1.183-1.183 0-.677-.494-1.184-1.183-1.184-.676 0-1.183.508-1.183 1.184 0 .675.507 1.182 1.183 1.182z"/></g></svg>