<svg width="300" height="23" viewBox="0 0 300 23" xmlns="http://www.w3.org/2000/svg"><g fill="#fff"><path d="M69.123 4.975c-.403 0-.776.04-1.19.13l.051-1.572h3.236v-1.21h-4.385l-.141 3.65.585.413c.494-.161.897-.272 1.512-.272.897 0 1.441.353 1.441 1.079 0 .675-.564 1.169-1.593 1.169-.584 0-1.23-.111-1.885-.333l-.292 1.099c.686.252 1.32.383 2.218.383 1.855 0 2.853-1.018 2.853-2.379 0-1.31-.867-2.157-2.41-2.157zM75.152 9.531c1.834 0 2.802-1.33 2.802-3.69 0-2.318-.938-3.628-2.722-3.628-1.824 0-2.792 1.34-2.792 3.69 0 2.318.937 3.628 2.712 3.628zm.03-1.16c-.907 0-1.432-.806-1.432-2.489 0-1.573.525-2.51 1.432-2.51.917 0 1.461.927 1.461 2.49 0 1.693-.544 2.51-1.461 2.51zM80.313 2.213c-.907 0-1.663.645-1.663 1.703 0 1.049.766 1.593 1.633 1.593.947 0 1.683-.645 1.683-1.693 0-1.059-.706-1.603-1.653-1.603zm5.564.13h-1.28L79.254 9.24V9.4h1.28l5.343-6.895zm-5.564.787c.343 0 .534.323.534.726 0 .393-.191.726-.534.726s-.534-.333-.534-.726c0-.403.191-.726.534-.726zm4.556 3.105c-.907 0-1.663.645-1.663 1.703 0 1.049.766 1.593 1.633 1.593.948 0 1.683-.645 1.683-1.693 0-1.059-.705-1.603-1.653-1.603zm0 .917c.343 0 .535.323.535.726 0 .393-.192.726-.535.726-.342 0-.534-.333-.534-.726 0-.403.192-.726.534-.726zM92.883 1.84v2.57a2.677 2.677 0 00-1.028-.181c-1.492 0-2.51 1.089-2.51 2.711 0 1.593.968 2.591 2.42 2.591.584 0 1.038-.161 1.39-.443l.132.312h.856V1.84zm-2.227 5.05c0-.867.483-1.572 1.4-1.572.263 0 .545.04.827.181V8.13a1.605 1.605 0 01-.877.262c-.816 0-1.35-.585-1.35-1.502zM99.577 8.12a3.329 3.329 0 01-1.371.272c-.978 0-1.573-.333-1.714-1.17h3.266c.07-.271.111-.685.111-.886 0-1.331-.796-2.107-2.147-2.107-1.552 0-2.53 1.099-2.53 2.63 0 1.604 1.008 2.672 2.772 2.672.696 0 1.34-.12 1.925-.433zm-1.915-2.883c.584 0 .998.413.998.937v.04h-2.138c.162-.574.565-.977 1.14-.977zM106.442 1.84v2.57a2.677 2.677 0 00-1.028-.181c-1.492 0-2.51 1.089-2.51 2.711 0 1.593.967 2.591 2.419 2.591.584 0 1.038-.161 1.39-.443l.132.312h.857V1.84zm-2.228 5.05c0-.867.484-1.572 1.401-1.572.262 0 .544.04.827.181V8.13a1.605 1.605 0 01-.877.262c-.817 0-1.351-.585-1.351-1.502zM113.135 8.12a3.329 3.329 0 01-1.37.272c-.979 0-1.573-.333-1.714-1.17h3.266c.07-.271.11-.685.11-.886 0-1.331-.796-2.107-2.147-2.107-1.552 0-2.53 1.099-2.53 2.63 0 1.604 1.008 2.672 2.772 2.672.696 0 1.341-.12 1.926-.433zm-1.915-2.883c.585 0 .998.413.998.937v.04h-2.137c.161-.574.564-.977 1.139-.977zM116.432 4.229c-1.22 0-2.107.625-2.107 1.603 0 1.814 2.752 1.4 2.752 2.137 0 .282-.333.443-.958.443-.504 0-1.018-.13-1.522-.302l-.343 1.058c.605.232 1.21.363 1.865.363 1.442 0 2.188-.665 2.188-1.633 0-1.915-2.732-1.451-2.732-2.147 0-.313.322-.514.907-.514.383 0 .817.06 1.371.242l.282-.968a5.433 5.433 0 00-1.703-.282zM121.926 4.229c-1.765 0-2.823 1.038-2.823 2.711 0 1.623 1.058 2.591 2.681 2.591.525 0 .998-.08 1.533-.252l-.192-1.078c-.363.1-.716.17-1.038.17-1.069 0-1.674-.493-1.674-1.45 0-.978.646-1.543 1.664-1.543.322 0 .645.05.988.151l.181-1.119a5.155 5.155 0 00-1.32-.181zM126.401 9.531c1.563 0 2.52-1.048 2.52-2.681 0-1.694-.937-2.621-2.47-2.621-1.612 0-2.55 1.028-2.55 2.722 0 1.623.938 2.58 2.5 2.58zm0-1.139c-.776 0-1.22-.615-1.22-1.492 0-.917.464-1.532 1.27-1.532.747 0 1.19.615 1.19 1.532 0 .877-.453 1.492-1.24 1.492zM132.671 4.229c-.705 0-1.26.201-1.703.494l-.151-.363h-.857V9.4h1.26V5.68a2.344 2.344 0 011.078-.272c.605 0 .888.303.888.857V9.4h1.26V5.902c0-1.018-.656-1.673-1.775-1.673zM138.417 8.291c-.171.05-.302.07-.443.07-.524 0-.827-.14-.827-.755V5.469h1.341v-1.11h-1.34V2.849h-1.06l-.19 1.512h-.757v1.028l.756.08v2.37c0 1.18.726 1.693 1.643 1.693.394 0 .716-.04 1.09-.211zM141.684 9.531c1.562 0 2.52-1.048 2.52-2.681 0-1.694-.938-2.621-2.47-2.621-1.613 0-2.55 1.028-2.55 2.722 0 1.623.937 2.58 2.5 2.58zm0-1.139c-.777 0-1.22-.615-1.22-1.492 0-.917.463-1.532 1.27-1.532.746 0 1.19.615 1.19 1.532 0 .877-.454 1.492-1.24 1.492zM149.859 4.229c-.585 0-1.038.161-1.391.443l-.131-.312h-.857v7.56h1.26V9.35c.292.12.635.181 1.028.181 1.492 0 2.51-1.088 2.51-2.711 0-1.593-.968-2.591-2.42-2.591zm-.292 4.214a1.81 1.81 0 01-.827-.182V5.63c.252-.161.544-.262.877-.262.816 0 1.35.585 1.35 1.502 0 .867-.483 1.573-1.4 1.573zM155.766 4.229c-.544 0-1.008.201-1.391.564l-.192-.433h-.866V9.4h1.26V5.72a2.316 2.316 0 011.592-.2l.182-1.19c-.141-.05-.363-.101-.585-.101zM158.86 4.229c-.584 0-1.28.1-1.904.282l.211 1.048a5.31 5.31 0 011.402-.211c.776 0 1.2.302 1.2.857v.181h-.999c-1.28 0-1.945.635-1.945 1.583 0 .897.685 1.562 1.864 1.562.585 0 1.019-.161 1.382-.443l.181.312h.776V5.963c0-1.018-.595-1.734-2.167-1.734zm-.745 3.69c0-.333.232-.575.776-.575h.877v.978a1.893 1.893 0 01-.847.191c-.494 0-.806-.222-.806-.595zM167.752 4.36l-1.18 3.72-1.21-3.72h-1.219v.11l1.704 4.93h1.421l1.744-4.93v-.11zM172.016 9.531c1.563 0 2.52-1.048 2.52-2.681 0-1.694-.937-2.621-2.47-2.621-1.612 0-2.55 1.028-2.55 2.722 0 1.623.938 2.58 2.5 2.58zm0-1.139c-.776 0-1.22-.615-1.22-1.492 0-.917.464-1.532 1.27-1.532.746 0 1.19.615 1.19 1.532 0 .877-.454 1.492-1.24 1.492zM178.125 4.229c-1.764 0-2.823 1.038-2.823 2.711 0 1.623 1.059 2.591 2.682 2.591.524 0 .998-.08 1.532-.252l-.192-1.078c-.362.1-.715.17-1.038.17-1.068 0-1.673-.493-1.673-1.45 0-.978.645-1.543 1.663-1.543.323 0 .645.05.988.151l.181-1.119a5.155 5.155 0 00-1.32-.181zM182.52 3.15h.04l.474.605h1.29v-.1l-1.129-1.462h-1.27l-1.18 1.461v.101h1.311zm1.966 4.97a3.329 3.329 0 01-1.371.272c-.978 0-1.573-.333-1.714-1.17h3.266c.07-.271.111-.685.111-.886 0-1.331-.796-2.107-2.147-2.107-1.553 0-2.53 1.099-2.53 2.63 0 1.604 1.008 2.672 2.772 2.672.695 0 1.34-.12 1.925-.433zm-1.916-2.883c.585 0 .998.413.998.937v.04h-2.137c.162-.574.565-.977 1.14-.977zM189.869 4.229c-.585 0-1.28.1-1.905.282l.211 1.048a5.31 5.31 0 011.401-.211c.777 0 1.2.302 1.2.857v.181h-.998c-1.28 0-1.946.635-1.946 1.583 0 .897.686 1.562 1.865 1.562.585 0 1.019-.161 1.381-.443l.182.312h.776V5.963c0-1.018-.595-1.734-2.167-1.734zm-.746 3.69c0-.333.232-.575.776-.575h.877v.978a1.893 1.893 0 01-.847.191c-.494 0-.806-.222-.806-.595zM195.655 4.229c-.585 0-1.038.161-1.391.443l-.131-.312h-.857v7.56h1.26V9.35c.292.12.635.181 1.028.181 1.492 0 2.51-1.088 2.51-2.711 0-1.593-.967-2.591-2.419-2.591zm-.292 4.214a1.81 1.81 0 01-.827-.182V5.63c.252-.161.544-.262.877-.262.817 0 1.35.585 1.35 1.502 0 .867-.483 1.573-1.4 1.573zM201.562 4.229c-.544 0-1.008.201-1.39.564l-.192-.433h-.867V9.4h1.26V5.72a2.316 2.316 0 011.592-.2l.182-1.19c-.141-.05-.363-.101-.585-.101zM205 9.531c1.562 0 2.52-1.048 2.52-2.681 0-1.694-.938-2.621-2.47-2.621-1.613 0-2.55 1.028-2.55 2.722 0 1.623.937 2.58 2.5 2.58zm0-1.139c-.776 0-1.22-.615-1.22-1.492 0-.917.464-1.532 1.27-1.532.746 0 1.19.615 1.19 1.532 0 .877-.454 1.492-1.24 1.492zM211.663 4.36l-1.18 3.72-1.21-3.72h-1.219v.11l1.704 4.93h1.421l1.744-4.93v-.11zM217.812 8.12a3.329 3.329 0 01-1.37.272c-.979 0-1.573-.333-1.714-1.17h3.266c.07-.271.11-.685.11-.886 0-1.331-.796-2.107-2.147-2.107-1.552 0-2.53 1.099-2.53 2.63 0 1.604 1.008 2.672 2.772 2.672.696 0 1.341-.12 1.926-.433zm-1.915-2.883c.585 0 .998.413.998.937v.04h-2.137c.161-.574.564-.977 1.139-.977zM219.869 1.93c-.484 0-.807.303-.807.767 0 .473.323.776.807.776.473 0 .796-.303.796-.776 0-.464-.323-.767-.796-.767zm.625 2.43h-1.26V9.4h1.26zM224.657 8.291c-.171.05-.302.07-.444.07-.524 0-.826-.14-.826-.755V5.469h1.34v-1.11h-1.34V2.849h-1.059l-.191 1.512h-.756v1.028l.756.08v2.37c0 1.18.726 1.693 1.643 1.693.393 0 .716-.04 1.089-.211zM227.45 4.229c-.585 0-1.281.1-1.906.282l.212 1.048a5.31 5.31 0 011.4-.211c.777 0 1.2.302 1.2.857v.181h-.997c-1.28 0-1.946.635-1.946 1.583 0 .897.685 1.562 1.865 1.562.585 0 1.018-.161 1.38-.443l.182.312h.777V5.963c0-1.018-.595-1.734-2.168-1.734zm-.747 3.69c0-.333.232-.575.776-.575h.878v.978a1.893 1.893 0 01-.847.191c-.494 0-.807-.222-.807-.595zM233.296 4.229c-.544 0-1.008.201-1.391.564l-.192-.433h-.867V9.4h1.26V5.72a2.316 2.316 0 011.593-.2l.182-1.19c-.141-.05-.363-.101-.585-.101z"/></g><g fill="#fff"><path d="M92.702 18.997v-5.565h-1.29l-1.896.262v1.27h1.371v4.033h-1.37v1.492h4.435v-1.492zM97.319 20.63c1.935 0 2.913-1.33 2.913-3.71 0-2.328-.937-3.629-2.792-3.629-1.936 0-2.924 1.33-2.924 3.69 0 2.338.938 3.649 2.803 3.649zm.04-1.502c-.605 0-.978-.736-.978-2.177 0-1.392.373-2.158.978-2.158.635 0 1.008.766 1.008 2.147 0 1.452-.373 2.188-1.008 2.188zM103.81 20.63c1.936 0 2.914-1.33 2.914-3.71 0-2.328-.938-3.629-2.792-3.629-1.936 0-2.924 1.33-2.924 3.69 0 2.338.938 3.649 2.803 3.649zm.041-1.502c-.605 0-.978-.736-.978-2.177 0-1.392.373-2.158.978-2.158.635 0 1.008.766 1.008 2.147 0 1.452-.373 2.188-1.008 2.188zM109.113 13.291c-1.028 0-1.814.645-1.814 1.734 0 1.079.786 1.694 1.804 1.694 1.028 0 1.815-.645 1.815-1.724 0-1.089-.777-1.704-1.805-1.704zm5.927.141h-1.723l-5.323 6.835v.222h1.784l5.262-6.835zm-5.927.767c.232 0 .343.262.343.796 0 .544-.111.816-.343.816-.242 0-.353-.272-.353-.816 0-.534.111-.796.353-.796zm4.859 3.004c-1.028 0-1.815.645-1.815 1.733 0 1.079.797 1.694 1.805 1.694 1.028 0 1.814-.645 1.814-1.724 0-1.089-.776-1.703-1.804-1.703zm0 .907c.242 0 .343.262.343.796 0 .545-.101.817-.343.817-.242 0-.353-.272-.353-.817 0-.534.111-.796.353-.796zM120.615 15.307c-.706 0-1.452.101-2.147.283l.282 1.36a5.725 5.725 0 011.35-.191c.737 0 1.06.232 1.06.746v.03h-.847c-1.29 0-1.976.585-1.976 1.543 0 .907.736 1.552 1.845 1.552.625 0 1.058-.151 1.451-.454l.222.313h1.089v-3.347c0-1.028-.666-1.835-2.329-1.835zm-.454 3.65c0-.263.172-.424.545-.424h.453v.797a1.27 1.27 0 01-.433.08c-.373 0-.565-.181-.565-.453zM129.184 15.449l-.827 3.175-.847-3.175h-1.824v.14l1.612 4.9h2.037l1.623-4.9v-.14zM132.6 12.848c-.634 0-1.058.403-1.058 1.008s.424 1.008 1.059 1.008c.625 0 1.038-.403 1.038-1.008s-.413-1.008-1.038-1.008zm.888 2.6h-1.784v5.04h1.784zM137.58 12.928v2.5a2.262 2.262 0 00-.786-.12c-1.461 0-2.5 1.098-2.5 2.731 0 1.613 1.008 2.59 2.43 2.59.595 0 1.008-.17 1.33-.443l.172.303h1.139v-7.56zm-1.45 5.06c0-.896.372-1.37.957-1.37.181 0 .342.03.494.09v2.46c-.152.07-.313.101-.504.101-.585 0-.948-.494-.948-1.28zM142.46 15.307c-.706 0-1.452.101-2.147.283l.282 1.36a5.725 5.725 0 011.35-.191c.736 0 1.06.232 1.06.746v.03h-.848c-1.29 0-1.976.585-1.976 1.543 0 .907.736 1.552 1.845 1.552.625 0 1.059-.151 1.452-.454l.222.313h1.088v-3.347c0-1.028-.665-1.835-2.328-1.835zm-.454 3.65c0-.263.171-.424.544-.424h.454v.797a1.27 1.27 0 01-.433.08c-.373 0-.565-.181-.565-.453zM150.575 15.307c-1.906 0-2.984 1.039-2.984 2.742 0 1.623 1.088 2.58 2.782 2.58.524 0 .988-.06 1.562-.241l-.262-1.35c-.312.08-.584.12-.836.12-.897 0-1.412-.423-1.412-1.16 0-.745.535-1.229 1.381-1.229.232 0 .494.03.807.1l.232-1.41a5.34 5.34 0 00-1.27-.152zM154.95 20.63c1.612 0 2.62-1.089 2.62-2.712 0-1.703-.997-2.61-2.61-2.61-1.654 0-2.631 1.058-2.631 2.761 0 1.613.998 2.56 2.62 2.56zm0-1.32c-.504 0-.797-.474-.797-1.321 0-.877.293-1.361.807-1.361.504 0 .786.484.786 1.36 0 .848-.292 1.321-.796 1.321zM164.294 15.307c-.584 0-1.159.152-1.633.444-.292-.282-.736-.444-1.31-.444-.595 0-1.19.162-1.674.474l-.181-.332h-1.14v5.04h1.775v-3.71c.181-.05.383-.09.585-.09.433 0 .594.191.594.554v3.246h1.785V16.77c.181-.051.373-.082.574-.082.424 0 .595.192.595.555v3.246h1.784v-3.62c0-.977-.655-1.562-1.754-1.562zM171.15 15.307c-.707 0-1.453.101-2.148.283l.282 1.36a5.725 5.725 0 011.351-.191c.736 0 1.058.232 1.058.746v.03h-.846c-1.29 0-1.976.585-1.976 1.543 0 .907.736 1.552 1.845 1.552.625 0 1.058-.151 1.451-.454l.222.313h1.089v-3.347c0-1.028-.666-1.835-2.329-1.835zm-.455 3.65c0-.263.172-.424.545-.424h.453v.797a1.27 1.27 0 01-.433.08c-.373 0-.565-.181-.565-.453zM179.324 14.259a.82.82 0 01.303.05l.181-1.39a4.847 4.847 0 00-1.139-.132c-1.2 0-1.905.897-1.905 2.077v.585h-.565v1.189l.565.09v3.76h1.774v-3.76h.948v-1.28h-.948v-.292c0-.584.303-.897.786-.897zM182.258 15.307c-.706 0-1.452.101-2.147.283l.282 1.36a5.725 5.725 0 011.35-.191c.737 0 1.06.232 1.06.746v.03h-.847c-1.29 0-1.976.585-1.976 1.543 0 .907.736 1.552 1.844 1.552.625 0 1.059-.151 1.452-.454l.222.313h1.089v-3.347c0-1.028-.666-1.835-2.33-1.835zm-.454 3.65c0-.263.172-.424.545-.424h.453v.797a1.27 1.27 0 01-.433.08c-.373 0-.565-.181-.565-.453zM191.431 15.307c-.584 0-1.159.152-1.633.444-.292-.282-.736-.444-1.31-.444-.595 0-1.19.162-1.674.474l-.181-.332h-1.14v5.04h1.775v-3.71c.181-.05.383-.09.585-.09.433 0 .594.191.594.554v3.246h1.785V16.77c.181-.051.373-.082.574-.082.424 0 .595.192.595.555v3.246h1.784v-3.62c0-.977-.655-1.562-1.754-1.562zM195.322 12.384l-1.098 2.067.998.594 1.41-1.885zm.676 3.065h-1.774v5.04h1.774zM199.607 19.188a.87.87 0 01-.283.04c-.322 0-.514-.15-.514-.544v-5.756h-1.774v6.09c0 1.148.645 1.612 1.613 1.612.484 0 .837-.08 1.2-.232zM201.27 12.848c-.635 0-1.059.403-1.059 1.008s.424 1.008 1.059 1.008c.625 0 1.038-.403 1.038-1.008s-.413-1.008-1.038-1.008zm.887 2.6h-1.784v5.04h1.784zM205.252 15.307c-.706 0-1.452.101-2.147.283l.282 1.36a5.725 5.725 0 011.35-.191c.737 0 1.06.232 1.06.746v.03h-.848c-1.29 0-1.975.585-1.975 1.543 0 .907.735 1.552 1.844 1.552.625 0 1.059-.151 1.452-.454l.222.313h1.088v-3.347c0-1.028-.665-1.835-2.328-1.835zm-.454 3.65c0-.263.172-.424.544-.424h.454v.797a1.27 1.27 0 01-.433.08c-.373 0-.565-.181-.565-.453zM209.334 20.63a.97.97 0 00.998-.998.97.97 0 00-.998-.998.97.97 0 00-.998.998.97.97 0 00.998.998z"/></g></svg>