<svg width="339.556" height="30.222" viewBox="0 0 339.556 30.222" xmlns="http://www.w3.org/2000/svg"><g fill="#fff"><path d="M7.578 11.868c-.587 0-1.247.049-2.03.171l.123-2.762h6.991V5.659H1.736l-.416 9.24 2.004 1.125c1.027-.367 1.858-.612 3.032-.612 1.637 0 2.689.66 2.689 1.98 0 1.272-1.003 2.103-3.056 2.103-1.222 0-2.689-.27-4.351-.807L.782 22.11c1.736.636 3.57 1.027 5.55 1.027 4.693 0 7.186-2.493 7.186-5.965 0-3.202-2.127-5.304-5.94-5.304zM22 23.137c4.694 0 7.065-3.227 7.065-8.996 0-5.646-2.274-8.8-6.771-8.8-4.694 0-7.09 3.227-7.09 8.947 0 5.671 2.274 8.849 6.796 8.849zm.098-3.642c-1.467 0-2.371-1.785-2.371-5.28 0-3.374.904-5.232 2.371-5.232 1.54 0 2.444 1.858 2.444 5.207 0 3.52-.904 5.305-2.444 5.305zM34.858 5.341c-2.493 0-4.4 1.565-4.4 4.205 0 2.615 1.907 4.106 4.376 4.106 2.493 0 4.4-1.564 4.4-4.18 0-2.64-1.882-4.13-4.376-4.13zm14.374.342h-4.18L32.145 22.257v.538h4.326L49.231 6.22zM34.858 7.541c.562 0 .831.636.831 1.931 0 1.32-.269 1.98-.83 1.98-.588 0-.856-.66-.856-1.98 0-1.295.268-1.93.855-1.93zm11.782 7.285c-2.493 0-4.4 1.564-4.4 4.204 0 2.616 1.932 4.107 4.376 4.107 2.493 0 4.4-1.565 4.4-4.18 0-2.64-1.882-4.131-4.376-4.131zm0 2.2c.587 0 .832.635.832 1.93 0 1.32-.245 1.98-.832 1.98-.586 0-.855-.66-.855-1.98 0-1.295.269-1.93.855-1.93zM65.17 4.461v6.062c-.538-.195-1.15-.293-1.907-.293-3.545 0-6.062 2.665-6.062 6.625 0 3.91 2.444 6.282 5.89 6.282 1.443 0 2.445-.416 3.227-1.076l.416.734h2.762V4.46zm-3.52 12.271c0-2.175.904-3.324 2.322-3.324.44 0 .83.073 1.198.22v5.964c-.367.172-.758.245-1.223.245-1.417 0-2.297-1.198-2.297-3.105zM82.72 19.275c-1.172.39-2.15.562-3.177.562-1.931 0-3.129-.636-3.569-2.102h7.114c.244-.807.317-1.736.317-2.323 0-3.324-2.029-5.182-5.402-5.182-4.058 0-6.551 2.713-6.551 6.527 0 3.96 2.567 6.38 7.235 6.38 1.687 0 3.3-.293 4.767-1.002zm-4.864-6.185c.93 0 1.565.709 1.565 1.736v.22H75.9c.269-1.198.978-1.956 1.955-1.956zM97.999 4.461v6.062c-.538-.195-1.15-.293-1.907-.293-3.544 0-6.062 2.665-6.062 6.625 0 3.91 2.444 6.282 5.891 6.282 1.442 0 2.444-.416 3.227-1.076l.415.734h2.763V4.46zm-3.52 12.271c0-2.175.904-3.324 2.322-3.324.44 0 .831.073 1.198.22v5.964c-.367.172-.758.245-1.222.245-1.418 0-2.298-1.198-2.298-3.105zM115.55 19.275c-1.173.39-2.151.562-3.178.562-1.93 0-3.129-.636-3.569-2.102h7.114c.244-.807.318-1.736.318-2.323 0-3.324-2.03-5.182-5.403-5.182-4.058 0-6.55 2.713-6.55 6.527 0 3.96 2.566 6.38 7.235 6.38 1.686 0 3.3-.293 4.766-1.002zm-4.864-6.185c.929 0 1.564.709 1.564 1.736v.22h-3.52c.269-1.198.978-1.956 1.956-1.956zM123.446 10.23c-3.325 0-5.525 1.516-5.525 4.131 0 4.156 6.136 3.691 6.136 4.938 0 .465-.513.733-1.59.733-1.197 0-2.615-.317-3.788-.733l-.904 2.982a14.15 14.15 0 004.864.856c3.642 0 5.622-1.613 5.622-4.107 0-4.498-6.037-3.642-6.037-5.06 0-.489.513-.807 1.442-.807.83 0 1.955.245 3.226.685l.93-2.885a13.808 13.808 0 00-4.376-.733zM136.988 10.23c-4.62 0-7.236 2.518-7.236 6.65 0 3.935 2.64 6.257 6.747 6.257 1.271 0 2.396-.147 3.79-.587l-.636-3.275c-.758.195-1.418.293-2.03.293-2.175 0-3.422-1.027-3.422-2.811 0-1.81 1.296-2.982 3.35-2.982.562 0 1.197.073 1.955.244l.562-3.422a12.951 12.951 0 00-3.08-.367zM147.597 23.137c3.911 0 6.356-2.64 6.356-6.576 0-4.13-2.42-6.33-6.331-6.33-4.01 0-6.38 2.566-6.38 6.697 0 3.911 2.42 6.209 6.355 6.209zm0-3.202c-1.222 0-1.931-1.15-1.931-3.203 0-2.126.709-3.3 1.956-3.3 1.222 0 1.906 1.174 1.906 3.3 0 2.054-.709 3.203-1.93 3.203zM163.266 10.23c-1.564 0-3.007.416-4.155 1.198l-.49-.856h-2.762v12.223h4.327v-8.972c.489-.146 1.027-.268 1.565-.268 1.026 0 1.442.464 1.442 1.344v7.896h4.302v-8.727c0-2.42-1.54-3.838-4.229-3.838zM176.686 19.666c-.22.049-.415.098-.61.098-1.052 0-1.614-.367-1.614-1.565v-4.693h2.542v-2.934h-2.542V6.906h-3.325l-.977 3.666h-1.443v2.714l1.443.22v5.524c0 2.787 1.686 4.107 4.18 4.107 1.002 0 1.906-.147 2.81-.562zM184.68 23.137c3.91 0 6.355-2.64 6.355-6.576 0-4.13-2.42-6.33-6.33-6.33-4.01 0-6.38 2.566-6.38 6.697 0 3.911 2.42 6.209 6.355 6.209zm0-3.202c-1.223 0-1.931-1.15-1.931-3.203 0-2.126.708-3.3 1.955-3.3 1.222 0 1.907 1.174 1.907 3.3 0 2.054-.71 3.203-1.931 3.203zM208.782 19.275c-1.173.39-2.151.562-3.178.562-1.93 0-3.129-.636-3.569-2.102h7.114c.244-.807.318-1.736.318-2.323 0-3.324-2.03-5.182-5.403-5.182-4.057 0-6.55 2.713-6.55 6.527 0 3.96 2.566 6.38 7.235 6.38 1.686 0 3.3-.293 4.767-1.002zm-4.864-6.185c.929 0 1.564.709 1.564 1.736v.22h-3.52c.269-1.198.978-1.956 1.956-1.956zM230.978 10.23c-1.418 0-2.811.367-3.96 1.076-.709-.685-1.785-1.076-3.178-1.076-1.442 0-2.884.391-4.058 1.149l-.44-.807h-2.762v12.223h4.302v-8.996c.44-.122.93-.22 1.418-.22 1.051 0 1.442.464 1.442 1.344v7.872h4.327V13.775c.44-.123.905-.196 1.393-.196 1.027 0 1.443.464 1.443 1.344v7.872h4.326v-8.776c0-2.371-1.589-3.789-4.253-3.789zM242.54 10.23c-1.71 0-3.52.245-5.206.685l.684 3.3c1.125-.294 2.347-.465 3.276-.465 1.784 0 2.566.562 2.566 1.81v.072h-2.053c-3.129 0-4.791 1.418-4.791 3.74 0 2.2 1.784 3.765 4.473 3.765 1.516 0 2.567-.367 3.52-1.1l.538.758h2.64v-8.116c0-2.493-1.613-4.449-5.647-4.449zm-1.1 8.85c0-.636.416-1.028 1.32-1.028h1.1v1.932a3.08 3.08 0 01-1.05.195c-.905 0-1.37-.44-1.37-1.1zM252.856 4.266c-1.54 0-2.567.977-2.567 2.444s1.027 2.445 2.567 2.445c1.516 0 2.518-.978 2.518-2.445 0-1.467-1.002-2.444-2.518-2.444zm2.151 6.306h-4.327v12.223h4.327zM262.61 10.23c-3.325 0-5.525 1.516-5.525 4.131 0 4.156 6.136 3.691 6.136 4.938 0 .465-.514.733-1.59.733-1.197 0-2.615-.317-3.788-.733l-.905 2.982a14.15 14.15 0 004.865.856c3.642 0 5.622-1.613 5.622-4.107 0-4.498-6.038-3.642-6.038-5.06 0-.489.514-.807 1.442-.807.832 0 1.956.245 3.227.685l.929-2.885a13.808 13.808 0 00-4.376-.733zM279.476 10.23c-3.324 0-5.524 1.516-5.524 4.131 0 4.156 6.135 3.691 6.135 4.938 0 .465-.513.733-1.589.733-1.197 0-2.615-.317-3.788-.733l-.905 2.982a14.15 14.15 0 004.865.856c3.642 0 5.622-1.613 5.622-4.107 0-4.498-6.038-3.642-6.038-5.06 0-.489.513-.807 1.442-.807.831 0 1.956.245 3.227.685l.929-2.885a13.808 13.808 0 00-4.376-.733zM291.185 10.23c-1.71 0-3.52.245-5.206.685l.684 3.3c1.124-.294 2.347-.465 3.276-.465 1.784 0 2.566.562 2.566 1.81v.072h-2.053c-3.129 0-4.791 1.418-4.791 3.74 0 2.2 1.784 3.765 4.473 3.765 1.516 0 2.567-.367 3.52-1.1l.538.758h2.64v-8.116c0-2.493-1.613-4.449-5.647-4.449zm-1.1 8.85c0-.636.416-1.028 1.32-1.028h1.1v1.932a3.08 3.08 0 01-1.05.195c-.905 0-1.37-.44-1.37-1.1zM309.788 5.39L307 2.652l-4.229 4.865 2.2 2.078zm-3.618 5.182v8.996a5.047 5.047 0 01-1.516.244c-1.026 0-1.442-.464-1.442-1.344v-7.896h-4.302v8.703c0 2.42 1.54 3.862 4.229 3.862 1.54 0 3.006-.416 4.13-1.173l.465.83h2.763V10.573zM320.372 4.461v6.062c-.538-.195-1.149-.293-1.906-.293-3.545 0-6.063 2.665-6.063 6.625 0 3.91 2.445 6.282 5.891 6.282 1.443 0 2.445-.416 3.227-1.076l.416.734h2.762V4.46zm-3.52 12.271c0-2.175.905-3.324 2.322-3.324.44 0 .832.073 1.198.22v5.964c-.366.172-.758.245-1.222.245-1.418 0-2.298-1.198-2.298-3.105zM337.924 19.275c-1.174.39-2.152.562-3.178.562-1.931 0-3.13-.636-3.57-2.102h7.114c.245-.807.318-1.736.318-2.323 0-3.324-2.029-5.182-5.402-5.182-4.058 0-6.551 2.713-6.551 6.527 0 3.96 2.566 6.38 7.235 6.38 1.687 0 3.3-.293 4.767-1.002zm-4.865-6.185c.929 0 1.564.709 1.564 1.736v.22h-3.52c.27-1.198.978-1.956 1.956-1.956z"/></g></svg>