<svg width="300" height="23" viewBox="0 0 300 23" xmlns="http://www.w3.org/2000/svg"><g fill="#fff"><path d="M88.846 9.531c2.097 0 3.427-1.472 3.427-3.69 0-2.247-1.22-3.628-3.346-3.628-2.087 0-3.428 1.461-3.428 3.69 0 2.237 1.23 3.628 3.347 3.628zm.03-1.21c-1.27 0-2.066-.987-2.066-2.439 0-1.482.796-2.46 2.066-2.46 1.29 0 2.087.978 2.087 2.44 0 1.472-.796 2.46-2.087 2.46zM95.721 4.229c-.585 0-1.038.161-1.391.443l-.131-.312h-.857v7.56h1.26V9.35c.292.12.635.181 1.028.181 1.492 0 2.51-1.088 2.51-2.711 0-1.593-.967-2.591-2.419-2.591zm-.292 4.214a1.81 1.81 0 01-.827-.182V5.63c.252-.161.544-.262.877-.262.817 0 1.35.585 1.35 1.502 0 .867-.483 1.573-1.4 1.573zM101.406 9.531c1.563 0 2.52-1.048 2.52-2.681 0-1.694-.937-2.621-2.47-2.621-1.612 0-2.55 1.028-2.55 2.722 0 1.623.938 2.58 2.5 2.58zm0-1.139c-.776 0-1.22-.615-1.22-1.492 0-.917.464-1.532 1.27-1.532.747 0 1.19.615 1.19 1.532 0 .877-.453 1.492-1.24 1.492zM107.415 4.229c-.545 0-1.009.201-1.392.564l-.191-.433h-.867V9.4h1.26V5.72a2.316 2.316 0 011.593-.2l.181-1.19c-.14-.05-.363-.101-.584-.101zM111.578 8.291c-.172.05-.303.07-.444.07-.524 0-.826-.14-.826-.755V5.469h1.34v-1.11h-1.34V2.849h-1.059l-.191 1.512h-.756v1.028l.756.08v2.37c0 1.18.725 1.693 1.643 1.693.393 0 .716-.04 1.088-.211zM115.68 4.36v3.77a2.245 2.245 0 01-1.028.232c-.604 0-.887-.323-.887-.867V4.36h-1.26v3.468c0 1.018.655 1.703 1.774 1.703.666 0 1.22-.191 1.664-.464l.13.333h.858V4.36zM120.953 4.229c-.706 0-1.26.201-1.704.494l-.151-.363h-.857V9.4h1.26V5.68a2.344 2.344 0 011.079-.272c.605 0 .887.303.887.857V9.4h1.26V5.902c0-1.018-.655-1.673-1.774-1.673zM124.723 1.93c-.484 0-.807.303-.807.767 0 .473.323.776.807.776.474 0 .796-.303.796-.776 0-.464-.322-.767-.796-.767zm.625 2.43h-1.26V9.4h1.26zM129.985 1.84v2.57a2.677 2.677 0 00-1.028-.181c-1.492 0-2.51 1.089-2.51 2.711 0 1.593.967 2.591 2.419 2.591.585 0 1.038-.161 1.391-.443l.131.312h.857V1.84zm-2.228 5.05c0-.867.484-1.572 1.401-1.572.262 0 .545.04.827.181V8.13a1.605 1.605 0 01-.877.262c-.817 0-1.35-.585-1.35-1.502zM134.35 4.229c-.585 0-1.28.1-1.905.282l.211 1.048a5.31 5.31 0 011.402-.211c.776 0 1.2.302 1.2.857v.181h-.999c-1.28 0-1.945.635-1.945 1.583 0 .897.685 1.562 1.864 1.562.585 0 1.019-.161 1.382-.443l.181.312h.776V5.963c0-1.018-.595-1.734-2.167-1.734zm-.746 3.69c0-.333.232-.575.776-.575h.877v.978a1.893 1.893 0 01-.847.191c-.494 0-.806-.222-.806-.595zM141.023 1.84v2.57a2.677 2.677 0 00-1.028-.181c-1.492 0-2.51 1.089-2.51 2.711 0 1.593.968 2.591 2.42 2.591.584 0 1.038-.161 1.39-.443l.131.312h.857V1.84zm-2.228 5.05c0-.867.484-1.572 1.402-1.572.262 0 .544.04.826.181V8.13a1.605 1.605 0 01-.877.262c-.816 0-1.35-.585-1.35-1.502zM147.717 8.12a3.329 3.329 0 01-1.371.272c-.978 0-1.573-.333-1.714-1.17h3.266c.07-.271.111-.685.111-.886 0-1.331-.796-2.107-2.147-2.107-1.552 0-2.53 1.099-2.53 2.63 0 1.604 1.008 2.672 2.772 2.672.695 0 1.34-.12 1.925-.433zM145.8 5.237c.585 0 .998.413.998.937v.04h-2.137c.162-.574.565-.977 1.14-.977zM155.489 2.172l-.948-.937-1.764 1.905.736.716zM154.41 4.36v3.77a2.245 2.245 0 01-1.028.232c-.605 0-.887-.323-.887-.867V4.36h-1.26v3.468c0 1.018.655 1.703 1.774 1.703.665 0 1.22-.191 1.663-.464l.131.333h.857V4.36zM159.682 4.229c-.705 0-1.26.201-1.703.494l-.151-.363h-.857V9.4h1.26V5.68a2.344 2.344 0 011.078-.272c.605 0 .888.303.888.857V9.4h1.26V5.902c0-1.018-.656-1.673-1.775-1.673zM163.453 1.93c-.484 0-.807.303-.807.767 0 .473.323.776.807.776.473 0 .796-.303.796-.776 0-.464-.323-.767-.796-.767zm.625 2.43h-1.26V9.4h1.26zM167.999 4.229c-1.764 0-2.823 1.038-2.823 2.711 0 1.623 1.059 2.591 2.682 2.591.524 0 .998-.08 1.532-.252l-.191-1.078c-.363.1-.716.17-1.039.17-1.068 0-1.673-.493-1.673-1.45 0-.978.645-1.543 1.663-1.543.323 0 .645.05.988.151l.181-1.119A5.155 5.155 0 00168 4.23zM172.092 4.229c-.585 0-1.28.1-1.906.282l.212 1.048a5.31 5.31 0 011.401-.211c.777 0 1.2.302 1.2.857v.181H172c-1.28 0-1.946.635-1.946 1.583 0 .897.686 1.562 1.865 1.562.585 0 1.018-.161 1.381-.443l.182.312h.776V5.963c0-1.018-.595-1.734-2.167-1.734zm-.746 3.69c0-.333.232-.575.776-.575h.877v.978a1.893 1.893 0 01-.847.191c-.494 0-.806-.222-.806-.595zM180.116 4.229c-.585 0-1.039.161-1.391.443l-.131-.312h-.857v7.56h1.26V9.35c.292.12.635.181 1.028.181 1.492 0 2.51-1.088 2.51-2.711 0-1.593-.968-2.591-2.42-2.591zm-.293 4.214a1.81 1.81 0 01-.826-.182V5.63c.252-.161.544-.262.877-.262.816 0 1.35.585 1.35 1.502 0 .867-.483 1.573-1.4 1.573zM185.297 4.229c-.584 0-1.28.1-1.905.282l.212 1.048a5.31 5.31 0 011.4-.211c.777 0 1.2.302 1.2.857v.181h-.998c-1.28 0-1.945.635-1.945 1.583 0 .897.685 1.562 1.865 1.562.585 0 1.018-.161 1.38-.443l.182.312h.777V5.963c0-1.018-.595-1.734-2.168-1.734zm-.746 3.69c0-.333.232-.575.776-.575h.877v.978a1.893 1.893 0 01-.846.191c-.494 0-.807-.222-.807-.595zM191.144 4.229c-.544 0-1.008.201-1.391.564l-.192-.433h-.867V9.4h1.26V5.72a2.316 2.316 0 011.593-.2l.182-1.19c-.141-.05-.363-.101-.585-.101zM194.239 4.229c-.585 0-1.28.1-1.906.282l.212 1.048a5.31 5.31 0 011.401-.211c.777 0 1.2.302 1.2.857v.181h-.998c-1.28 0-1.946.635-1.946 1.583 0 .897.686 1.562 1.865 1.562.585 0 1.018-.161 1.381-.443l.182.312h.776V5.963c0-1.018-.595-1.734-2.167-1.734zm-.746 3.69c0-.333.232-.575.776-.575h.877v.978a1.893 1.893 0 01-.847.191c-.494 0-.806-.222-.806-.595zM201.82 4.229c-1.22 0-2.108.625-2.108 1.603 0 1.814 2.752 1.4 2.752 2.137 0 .282-.332.443-.957.443-.504 0-1.018-.13-1.522-.302l-.343 1.058c.605.232 1.21.363 1.865.363 1.441 0 2.187-.665 2.187-1.633 0-1.915-2.732-1.451-2.732-2.147 0-.313.323-.514.908-.514.383 0 .816.06 1.37.242l.283-.968a5.433 5.433 0 00-1.704-.282zM207.817 4.36v3.77a2.245 2.245 0 01-1.028.232c-.605 0-.887-.323-.887-.867V4.36h-1.26v3.468c0 1.018.655 1.703 1.774 1.703.665 0 1.22-.191 1.663-.464l.131.333h.857V4.36zM212.162 4.229c-.585 0-1.28.1-1.905.282l.211 1.048a5.31 5.31 0 011.402-.211c.776 0 1.2.302 1.2.857v.181h-.999c-1.28 0-1.945.635-1.945 1.583 0 .897.685 1.562 1.865 1.562.584 0 1.018-.161 1.38-.443l.182.312h.776V5.963c0-1.018-.594-1.734-2.167-1.734zm-.746 3.69c0-.333.232-.575.776-.575h.877v.978a1.893 1.893 0 01-.846.191c-.494 0-.807-.222-.807-.595z"/></g><g fill="#fff"><path d="M90.212 19.037a4 4 0 01-1.31.232c-.797 0-1.29-.262-1.472-.867h2.933c.101-.333.131-.716.131-.958 0-1.37-.836-2.137-2.228-2.137-1.673 0-2.701 1.12-2.701 2.692 0 1.633 1.058 2.63 2.984 2.63.695 0 1.36-.12 1.965-.412zm-2.006-2.55c.383 0 .645.292.645.716v.09H87.4c.111-.494.404-.806.807-.806zM97.278 15.307c-.584 0-1.159.152-1.633.444-.292-.282-.735-.444-1.31-.444-.595 0-1.19.162-1.673.474l-.182-.332h-1.139v5.04h1.774v-3.71c.182-.05.383-.09.585-.09.433 0 .595.191.595.554v3.246h1.784V16.77c.181-.051.373-.082.574-.082.424 0 .595.192.595.555v3.246h1.784v-3.62c0-.977-.655-1.562-1.754-1.562zM102.601 15.307c-.595 0-1.008.172-1.33.444l-.172-.302h-1.14v7.56h1.785v-2.5c.222.08.474.12.786.12 1.462 0 2.5-1.098 2.5-2.73 0-1.614-.998-2.592-2.429-2.592zm-.363 4.012c-.171 0-.333-.03-.494-.09v-2.46c.151-.07.313-.1.504-.1.585 0 .948.493.948 1.28 0 .897-.373 1.37-.958 1.37zM108.528 15.307c-.524 0-.947.192-1.31.565l-.262-.423h-1.14v5.04h1.785V16.97c.222-.081.484-.121.776-.121.182 0 .343.02.575.07l.252-1.482a1.785 1.785 0 00-.676-.13zM114.093 19.037a4 4 0 01-1.31.232c-.797 0-1.29-.262-1.472-.867h2.933c.1-.333.131-.716.131-.958 0-1.37-.837-2.137-2.228-2.137-1.673 0-2.701 1.12-2.701 2.692 0 1.633 1.058 2.63 2.984 2.63.695 0 1.36-.12 1.965-.412zm-2.006-2.55c.383 0 .645.292.645.716v.09h-1.452c.111-.494.404-.806.807-.806zM117.349 15.307c-1.371 0-2.278.625-2.278 1.704 0 1.714 2.53 1.522 2.53 2.036 0 .192-.212.303-.655.303-.494 0-1.079-.131-1.563-.303l-.373 1.23c.645.232 1.3.353 2.006.353 1.502 0 2.319-.665 2.319-1.694 0-1.854-2.49-1.502-2.49-2.086 0-.202.212-.333.595-.333.342 0 .806.1 1.33.282l.383-1.19a5.694 5.694 0 00-1.804-.302zM122.178 15.307c-.706 0-1.452.101-2.148.283l.283 1.36a5.725 5.725 0 011.35-.191c.736 0 1.059.232 1.059.746v.03h-.847c-1.29 0-1.976.585-1.976 1.543 0 .907.736 1.552 1.845 1.552.625 0 1.059-.151 1.452-.454l.221.313h1.09v-3.347c0-1.028-.666-1.835-2.33-1.835zm-.454 3.65c0-.263.171-.424.544-.424h.454v.797a1.27 1.27 0 01-.434.08c-.373 0-.564-.181-.564-.453zM130.464 19.199c-.09.02-.172.04-.252.04-.434 0-.666-.151-.666-.645v-1.936h1.049v-1.21h-1.049v-1.512h-1.37l-.404 1.513h-.594v1.118l.594.091v2.278c0 1.15.696 1.694 1.724 1.694.413 0 .786-.06 1.16-.232zM135.786 19.037a4 4 0 01-1.31.232c-.796 0-1.29-.262-1.472-.867h2.934c.1-.333.13-.716.13-.958 0-1.37-.836-2.137-2.227-2.137-1.674 0-2.702 1.12-2.702 2.692 0 1.633 1.059 2.63 2.984 2.63.696 0 1.36-.12 1.966-.412zm-2.006-2.55c.383 0 .645.292.645.716v.09h-1.451c.11-.494.403-.806.806-.806zM139.627 15.307c-.524 0-.948.192-1.31.565l-.263-.423h-1.139v5.04h1.785V16.97c.221-.081.484-.121.776-.121.181 0 .343.02.574.07l.252-1.482a1.785 1.785 0 00-.675-.13zM145.958 15.449v3.71c-.192.06-.404.1-.625.1-.424 0-.595-.192-.595-.554v-3.256h-1.774v3.588c0 .998.635 1.593 1.744 1.593.635 0 1.24-.171 1.703-.484l.192.343h1.139v-5.04zM154.667 15.307c-.584 0-1.159.152-1.633.444-.292-.282-.736-.444-1.31-.444-.595 0-1.19.162-1.674.474l-.181-.332h-1.14v5.04h1.775v-3.71c.181-.05.383-.09.585-.09.433 0 .594.191.594.554v3.246h1.785V16.77c.181-.051.373-.082.574-.082.424 0 .595.192.595.555v3.246h1.784v-3.62c0-.977-.655-1.562-1.754-1.562zM162.077 15.307c-.595 0-1.009.172-1.331.444l-.171-.302h-1.14v7.56h1.785v-2.5c.221.08.473.12.786.12 1.462 0 2.5-1.098 2.5-2.73 0-1.614-.998-2.592-2.43-2.592zm-.363 4.012c-.172 0-.333-.03-.494-.09v-2.46c.15-.07.312-.1.504-.1.584 0 .947.493.947 1.28 0 .897-.373 1.37-.957 1.37zM167.903 19.188a.87.87 0 01-.282.04c-.323 0-.514-.15-.514-.544v-5.756h-1.774v6.09c0 1.148.645 1.612 1.612 1.612.484 0 .837-.08 1.2-.232zM170.786 15.307c-.705 0-1.451.101-2.147.283l.282 1.36a5.725 5.725 0 011.351-.191c.736 0 1.059.232 1.059.746v.03h-.847c-1.29 0-1.976.585-1.976 1.543 0 .907.736 1.552 1.845 1.552.625 0 1.058-.151 1.451-.454l.222.313h1.089v-3.347c0-1.028-.666-1.835-2.329-1.835zm-.453 3.65c0-.263.17-.424.544-.424h.454v.797a1.27 1.27 0 01-.434.08c-.373 0-.564-.181-.564-.453zM177.076 15.307c-.645 0-1.24.172-1.713.494l-.202-.352h-1.139v5.04h1.784v-3.7c.202-.06.424-.11.645-.11.424 0 .595.19.595.554v3.256h1.774V16.89c0-.998-.635-1.583-1.744-1.583zM182.167 20.63c1.613 0 2.621-1.089 2.621-2.712 0-1.703-.998-2.61-2.61-2.61-1.654 0-2.632 1.058-2.632 2.761 0 1.613.998 2.56 2.621 2.56zm0-1.32c-.504 0-.796-.474-.796-1.321 0-.877.292-1.361.806-1.361.504 0 .787.484.787 1.36 0 .848-.293 1.321-.797 1.321zM192.087 13.311l-1.15-1.129-1.744 2.006.908.857zm-1.492 2.138v3.71c-.192.06-.404.1-.625.1-.424 0-.595-.192-.595-.554v-3.256H187.6v3.588c0 .998.635 1.593 1.744 1.593.635 0 1.24-.171 1.703-.484l.192.343h1.139v-5.04zM196.421 15.307c-.645 0-1.24.172-1.714.494l-.201-.352h-1.14v5.04h1.785v-3.7c.202-.06.423-.11.645-.11.424 0 .595.19.595.554v3.256h1.774V16.89c0-.998-.635-1.583-1.744-1.583zM200.1 12.848c-.634 0-1.058.403-1.058 1.008s.424 1.008 1.059 1.008c.625 0 1.038-.403 1.038-1.008s-.413-1.008-1.038-1.008zm.888 2.6h-1.785v5.04h1.785zM204.778 15.307c-1.905 0-2.984 1.039-2.984 2.742 0 1.623 1.089 2.58 2.782 2.58.525 0 .988-.06 1.563-.241l-.262-1.35c-.313.08-.585.12-.837.12-.897 0-1.411-.423-1.411-1.16 0-.745.534-1.229 1.38-1.229.233 0 .495.03.807.1l.232-1.41a5.34 5.34 0 00-1.27-.152zM209.153 20.63c1.613 0 2.62-1.089 2.62-2.712 0-1.703-.997-2.61-2.61-2.61-1.653 0-2.631 1.058-2.631 2.761 0 1.613.998 2.56 2.621 2.56zm0-1.32c-.504 0-.796-.474-.796-1.321 0-.877.292-1.361.806-1.361.504 0 .786.484.786 1.36 0 .848-.292 1.321-.796 1.321zM213.397 20.63a.97.97 0 00.998-.998.97.97 0 00-.998-.998.97.97 0 00-.998.998.97.97 0 00.998.998z"/></g></svg>