<svg width="184" height="16" viewBox="0 0 184 16" xmlns="http://www.w3.org/2000/svg"><g fill="#fff"><path d="M4.092 6.409c-.317 0-.673.026-1.096.092l.066-1.492h3.776V3.056h-5.9l-.225 4.99 1.082.607c.555-.198 1.003-.33 1.637-.33.884 0 1.452.356 1.452 1.069 0 .686-.541 1.135-1.65 1.135-.66 0-1.452-.145-2.35-.435L.422 11.94a8.628 8.628 0 002.997.554c2.534 0 3.88-1.346 3.88-3.22 0-1.73-1.148-2.865-3.207-2.865zM11.88 12.494c2.535 0 3.815-1.742 3.815-4.858 0-3.049-1.228-4.752-3.656-4.752-2.535 0-3.828 1.743-3.828 4.832 0 3.062 1.227 4.778 3.67 4.778zm.053-1.967c-.792 0-1.28-.963-1.28-2.851 0-1.822.488-2.825 1.28-2.825.832 0 1.32 1.003 1.32 2.812 0 1.9-.488 2.864-1.32 2.864zM18.823 2.884c-1.346 0-2.376.845-2.376 2.27 0 1.413 1.03 2.218 2.363 2.218 1.347 0 2.376-.845 2.376-2.257 0-1.426-1.016-2.23-2.363-2.23zm7.762.185h-2.257l-6.97 8.95v.29h2.337l6.89-8.95zm-7.762 1.003c.304 0 .45.343.45 1.043 0 .713-.146 1.07-.45 1.07-.316 0-.462-.357-.462-1.07 0-.7.146-1.043.462-1.043zm6.363 3.934c-1.346 0-2.376.845-2.376 2.27 0 1.413 1.043 2.218 2.363 2.218 1.346 0 2.376-.845 2.376-2.257 0-1.426-1.017-2.231-2.363-2.231zm0 1.188c.317 0 .449.343.449 1.043 0 .713-.132 1.069-.449 1.069s-.462-.356-.462-1.07c0-.699.145-1.042.462-1.042zM35.192 2.409v3.274a2.962 2.962 0 00-1.03-.159c-1.914 0-3.274 1.44-3.274 3.578 0 2.112 1.32 3.392 3.182 3.392.779 0 1.32-.224 1.742-.58l.225.395h1.491v-9.9zM33.29 9.036c0-1.175.488-1.796 1.254-1.796.238 0 .449.04.647.12v3.22c-.198.092-.41.132-.66.132-.766 0-1.241-.647-1.241-1.676zM44.67 10.408c-.634.212-1.162.304-1.717.304-1.042 0-1.69-.343-1.927-1.135h3.841c.132-.436.172-.937.172-1.254 0-1.796-1.096-2.799-2.917-2.799-2.191 0-3.538 1.466-3.538 3.525 0 2.138 1.386 3.445 3.907 3.445.911 0 1.782-.158 2.574-.541zm-2.627-3.34c.501 0 .844.384.844.938v.119h-1.9c.145-.647.528-1.056 1.056-1.056zM52.92 2.409v3.274a2.962 2.962 0 00-1.03-.159c-1.914 0-3.274 1.44-3.274 3.578 0 2.112 1.32 3.392 3.182 3.392.778 0 1.32-.224 1.742-.58l.224.395h1.492v-9.9zm-1.901 6.627c0-1.175.488-1.796 1.254-1.796.237 0 .449.04.647.12v3.22c-.198.092-.41.132-.66.132-.766 0-1.241-.647-1.241-1.676zM62.397 10.408c-.633.212-1.161.304-1.716.304-1.042 0-1.69-.343-1.927-1.135h3.841c.132-.436.172-.937.172-1.254 0-1.796-1.096-2.799-2.917-2.799-2.192 0-3.538 1.466-3.538 3.525 0 2.138 1.386 3.445 3.907 3.445.911 0 1.782-.158 2.574-.541zm-2.626-3.34c.501 0 .844.384.844.938v.119h-1.9c.145-.647.527-1.056 1.056-1.056zM66.661 5.524c-1.795 0-2.983.819-2.983 2.231 0 2.244 3.313 1.993 3.313 2.667 0 .25-.277.396-.858.396-.647 0-1.412-.172-2.046-.396l-.488 1.61a7.64 7.64 0 002.626.462c1.967 0 3.036-.871 3.036-2.218 0-2.428-3.26-1.966-3.26-2.732 0-.264.277-.436.779-.436.449 0 1.056.132 1.742.37l.502-1.558a7.456 7.456 0 00-2.363-.396zM73.974 5.524c-2.495 0-3.907 1.36-3.907 3.59 0 2.126 1.425 3.38 3.643 3.38.686 0 1.294-.08 2.046-.317l-.343-1.769c-.41.106-.766.159-1.096.159-1.175 0-1.848-.555-1.848-1.518 0-.977.7-1.61 1.809-1.61.303 0 .646.039 1.056.131l.303-1.848a6.994 6.994 0 00-1.663-.198zM79.703 12.494c2.112 0 3.432-1.426 3.432-3.55 0-2.232-1.307-3.42-3.419-3.42-2.165 0-3.445 1.386-3.445 3.617 0 2.112 1.307 3.353 3.432 3.353zm0-1.73c-.66 0-1.043-.62-1.043-1.728 0-1.149.383-1.782 1.056-1.782.66 0 1.03.633 1.03 1.782 0 1.108-.383 1.729-1.043 1.729zM88.164 5.524c-.845 0-1.623.225-2.244.647l-.264-.462h-1.492v6.6h2.337V7.465c.264-.08.554-.145.845-.145.554 0 .779.25.779.726v4.263h2.323V7.597c0-1.307-.832-2.073-2.284-2.073zM95.411 10.62c-.119.026-.224.052-.33.052-.568 0-.871-.198-.871-.844V7.293h1.373V5.71H94.21V3.73h-1.795l-.528 1.98h-.78v1.465l.78.12v2.982c0 1.505.91 2.218 2.257 2.218.541 0 1.03-.08 1.518-.304zM99.728 12.494c2.112 0 3.432-1.426 3.432-3.55 0-2.232-1.307-3.42-3.42-3.42-2.164 0-3.445 1.386-3.445 3.617 0 2.112 1.307 3.353 3.433 3.353zm0-1.73c-.66 0-1.043-.62-1.043-1.728 0-1.149.383-1.782 1.056-1.782.66 0 1.03.633 1.03 1.782 0 1.108-.383 1.729-1.043 1.729zM112.743 10.408c-.634.212-1.162.304-1.716.304-1.043 0-1.69-.343-1.927-1.135h3.84c.133-.436.173-.937.173-1.254 0-1.796-1.096-2.799-2.918-2.799-2.191 0-3.537 1.466-3.537 3.525 0 2.138 1.386 3.445 3.907 3.445.91 0 1.782-.158 2.574-.541zm-2.627-3.34c.502 0 .845.384.845.938v.119h-1.9c.144-.647.527-1.056 1.055-1.056zM124.729 5.524c-.766 0-1.518.198-2.139.581-.383-.37-.963-.58-1.716-.58-.779 0-1.557.21-2.191.62l-.238-.436h-1.491v6.6h2.323V7.452a2.9 2.9 0 01.766-.12c.567 0 .778.252.778.727v4.25h2.337V7.438a2.8 2.8 0 01.752-.105c.555 0 .78.25.78.726v4.25h2.336V7.57c0-1.28-.858-2.046-2.297-2.046zM130.972 5.524c-.924 0-1.9.132-2.811.37l.37 1.782c.607-.158 1.267-.25 1.768-.25.964 0 1.386.303 1.386.976v.04h-1.109c-1.69 0-2.587.765-2.587 2.02 0 1.187.964 2.032 2.416 2.032.818 0 1.386-.198 1.9-.594l.291.41h1.426V7.926c0-1.347-.872-2.403-3.05-2.403zm-.594 4.779c0-.343.225-.555.713-.555h.594v1.043c-.185.066-.37.106-.567.106-.489 0-.74-.238-.74-.594zM136.543 2.303c-.832 0-1.386.528-1.386 1.32s.554 1.32 1.386 1.32c.818 0 1.36-.528 1.36-1.32s-.542-1.32-1.36-1.32zm1.161 3.406h-2.336v6.6h2.336zM141.81 5.524c-1.795 0-2.983.819-2.983 2.231 0 2.244 3.313 1.993 3.313 2.667 0 .25-.277.396-.858.396-.647 0-1.413-.172-2.046-.396l-.489 1.61a7.64 7.64 0 002.627.462c1.967 0 3.036-.871 3.036-2.218 0-2.428-3.26-1.966-3.26-2.732 0-.264.277-.436.779-.436.448 0 1.056.132 1.742.37l.502-1.558a7.456 7.456 0 00-2.363-.396zM150.918 5.524c-1.795 0-2.983.819-2.983 2.231 0 2.244 3.313 1.993 3.313 2.667 0 .25-.277.396-.858.396-.647 0-1.413-.172-2.046-.396l-.489 1.61a7.64 7.64 0 002.627.462c1.967 0 3.036-.871 3.036-2.218 0-2.428-3.26-1.966-3.26-2.732 0-.264.277-.436.779-.436.448 0 1.056.132 1.742.37l.502-1.558a7.456 7.456 0 00-2.363-.396zM157.24 5.524c-.923 0-1.9.132-2.81.37l.369 1.782c.607-.158 1.267-.25 1.769-.25.963 0 1.386.303 1.386.976v.04h-1.11c-1.689 0-2.586.765-2.586 2.02 0 1.187.963 2.032 2.415 2.032.819 0 1.386-.198 1.901-.594l.29.41h1.426V7.926c0-1.347-.871-2.403-3.05-2.403zm-.593 4.779c0-.343.224-.555.713-.555h.594v1.043c-.185.066-.37.106-.568.106-.488 0-.74-.238-.74-.594zM167.286 2.91l-1.505-1.478-2.283 2.627 1.188 1.122zm-1.953 2.8v4.857c-.251.079-.529.132-.819.132-.554 0-.779-.251-.779-.726V5.709h-2.323v4.7c0 1.306.832 2.085 2.284 2.085.831 0 1.623-.224 2.23-.634l.251.45h1.492v-6.6zM173.002 2.409v3.274a2.962 2.962 0 00-1.03-.159c-1.914 0-3.273 1.44-3.273 3.578 0 2.112 1.32 3.392 3.18 3.392.78 0 1.32-.224 1.743-.58l.225.395h1.491v-9.9zM171.1 9.036c0-1.175.488-1.796 1.254-1.796.238 0 .449.04.647.12v3.22c-.198.092-.41.132-.66.132-.766 0-1.241-.647-1.241-1.676zM182.48 10.408c-.634.212-1.162.304-1.716.304-1.043 0-1.69-.343-1.928-1.135h3.842c.132-.436.171-.937.171-1.254 0-1.796-1.095-2.799-2.917-2.799-2.191 0-3.538 1.466-3.538 3.525 0 2.138 1.386 3.445 3.908 3.445.91 0 1.782-.158 2.574-.541zm-2.627-3.34c.501 0 .845.384.845.938v.119h-1.901c.145-.647.528-1.056 1.056-1.056z"/></g></svg>