<svg width="184" height="16" viewBox="0 0 184 16" xmlns="http://www.w3.org/2000/svg"><g fill="#fff"><path d="M3.165 2.01c-1.72 0-2.687.884-2.687 2.098 0 1.15.828 1.62 1.767 1.96.736.257 1.178.322 1.178.699 0 .294-.276.497-.838.497-.45 0-1.196-.129-1.757-.359l-.386 1.38c.607.258 1.472.423 2.199.423 1.61 0 2.576-.772 2.576-2.033 0-1.408-1.242-1.72-2.3-2.107-.414-.138-.727-.258-.727-.58 0-.322.35-.533.975-.533.488 0 1.021.092 1.555.23l.331-1.39a6.65 6.65 0 00-1.886-.285zM10.13 7.255a3.65 3.65 0 01-1.196.211c-.727 0-1.178-.239-1.344-.791h2.678a3.24 3.24 0 00.12-.874c0-1.251-.764-1.95-2.034-1.95-1.527 0-2.466 1.02-2.466 2.456 0 1.49.966 2.401 2.724 2.401.635 0 1.242-.11 1.794-.377zM8.299 4.927c.35 0 .589.267.589.653v.083H7.563c.101-.45.368-.736.736-.736zM13.838 3.98v3.385a1.9 1.9 0 01-.57.092c-.387 0-.544-.175-.544-.506V3.98h-1.619v3.276c0 .91.58 1.453 1.592 1.453.58 0 1.132-.156 1.555-.441l.175.313h1.04v-4.6zM20.683 3.85c-.543 0-.92.157-1.215.405l-.156-.276h-1.04v6.9h1.629V8.599c.202.074.432.11.718.11 1.334 0 2.281-1.002 2.281-2.493 0-1.472-.91-2.365-2.217-2.365zm-.331 3.662c-.157 0-.304-.027-.451-.083V5.185c.138-.065.285-.092.46-.092.534 0 .865.45.865 1.168 0 .819-.34 1.251-.874 1.251zM26.093 3.85c-.479 0-.865.175-1.196.516l-.24-.387h-1.04v4.6h1.63V5.37c.202-.074.441-.11.708-.11.166 0 .313.018.524.064l.23-1.353a1.629 1.629 0 00-.616-.12zM31.172 7.255a3.65 3.65 0 01-1.196.211c-.727 0-1.178-.239-1.344-.791h2.678a3.24 3.24 0 00.12-.874c0-1.251-.764-1.95-2.034-1.95-1.527 0-2.466 1.02-2.466 2.456 0 1.49.966 2.401 2.724 2.401.634 0 1.242-.11 1.794-.377zM29.34 4.927c.35 0 .589.267.589.653v.083h-1.325c.1-.45.368-.736.736-.736zM34.143 3.85c-1.25 0-2.079.57-2.079 1.555 0 1.564 2.31 1.39 2.31 1.859 0 .175-.194.276-.599.276-.45 0-.984-.12-1.426-.276l-.34 1.122a5.326 5.326 0 001.83.322c1.372 0 2.117-.607 2.117-1.545 0-1.693-2.273-1.371-2.273-1.905 0-.184.194-.303.543-.303.313 0 .736.092 1.215.257l.35-1.086a5.197 5.197 0 00-1.648-.276zM40.759 7.255a3.65 3.65 0 01-1.196.211c-.727 0-1.178-.239-1.344-.791h2.678a3.24 3.24 0 00.12-.874c0-1.251-.764-1.95-2.034-1.95-1.527 0-2.466 1.02-2.466 2.456 0 1.49.966 2.401 2.724 2.401.634 0 1.242-.11 1.794-.377zm-1.831-2.328c.35 0 .589.267.589.653v.083h-1.325c.1-.45.368-.736.736-.736zM44.577 3.85c-.589 0-1.132.157-1.564.451l-.184-.322h-1.04v4.6h1.629V5.204a2.08 2.08 0 01.588-.101c.387 0 .543.175.543.506V8.58h1.62V5.295c0-.91-.58-1.445-1.592-1.445zM49.628 7.402c-.083.018-.156.037-.23.037-.396 0-.607-.138-.607-.59V5.084h.957V3.98h-.957V2.6H47.54l-.369 1.38h-.542v1.022l.542.082v2.08c0 1.049.635 1.545 1.574 1.545.377 0 .717-.055 1.058-.211zM54.486 7.255a3.65 3.65 0 01-1.196.211c-.727 0-1.178-.239-1.343-.791h2.677a3.24 3.24 0 00.12-.874c0-1.251-.764-1.95-2.034-1.95-1.527 0-2.466 1.02-2.466 2.456 0 1.49.967 2.401 2.724 2.401.635 0 1.242-.11 1.794-.377zm-1.831-2.328c.35 0 .589.267.589.653v.083h-1.325c.101-.45.368-.736.736-.736zM59.832 3.85c-.543 0-.92.157-1.215.405l-.156-.276h-1.04v6.9h1.628V8.599c.203.074.433.11.718.11 1.334 0 2.282-1.002 2.282-2.493 0-1.472-.911-2.365-2.217-2.365zM59.5 7.512c-.156 0-.303-.027-.45-.083V5.185c.137-.065.285-.092.46-.092.533 0 .864.45.864 1.168 0 .819-.34 1.251-.874 1.251zM64.588 3.85c-.644 0-1.325.092-1.96.258l.258 1.242c.423-.11.883-.175 1.233-.175.672 0 .966.212.966.681v.028h-.773c-1.177 0-1.803.533-1.803 1.407 0 .829.672 1.417 1.684 1.417.57 0 .966-.138 1.324-.414l.203.286h.994V5.525c0-.939-.608-1.675-2.126-1.675zm-.414 3.331c0-.24.157-.386.497-.386h.414v.726a1.16 1.16 0 01-.396.074c-.34 0-.515-.166-.515-.414zM70.017 3.85c-.479 0-.865.175-1.197.516l-.239-.387h-1.04v4.6h1.63V5.37c.202-.074.44-.11.708-.11.165 0 .312.018.524.064l.23-1.353a1.629 1.629 0 00-.616-.12zM73.034 3.85c-.644 0-1.325.092-1.96.258l.258 1.242c.423-.11.884-.175 1.233-.175.672 0 .966.212.966.681v.028h-.773c-1.177 0-1.803.533-1.803 1.407 0 .829.672 1.417 1.684 1.417.57 0 .966-.138 1.325-.414l.202.286h.994V5.525c0-.939-.608-1.675-2.126-1.675zm-.414 3.331c0-.24.157-.386.497-.386h.414v.726a1.16 1.16 0 01-.395.074c-.34 0-.516-.166-.516-.414zM80.597 7.402c-.083.018-.156.037-.23.037-.395 0-.607-.138-.607-.59V5.084h.957V3.98h-.957V2.6h-1.251l-.368 1.38h-.543v1.022l.543.082v2.08c0 1.049.635 1.545 1.573 1.545.377 0 .718-.055 1.058-.211zM85.455 7.255a3.65 3.65 0 01-1.196.211c-.727 0-1.178-.239-1.343-.791h2.677a3.24 3.24 0 00.12-.874c0-1.251-.764-1.95-2.034-1.95-1.527 0-2.465 1.02-2.465 2.456 0 1.49.966 2.401 2.723 2.401.635 0 1.242-.11 1.794-.377zm-1.83-2.328c.349 0 .588.267.588.653v.083h-1.325c.101-.45.368-.736.736-.736zM88.96 3.85c-.478 0-.864.175-1.195.516l-.24-.387h-1.04v4.6h1.63V5.37c.202-.074.44-.11.708-.11.165 0 .312.018.524.064l.23-1.353a1.629 1.629 0 00-.616-.12zM94.739 3.98v3.385a1.9 1.9 0 01-.57.092c-.387 0-.544-.175-.544-.506V3.98h-1.619v3.276c0 .91.58 1.453 1.592 1.453.58 0 1.131-.156 1.555-.441l.174.313h1.04v-4.6zM102.688 3.85c-.534 0-1.058.138-1.49.405-.267-.257-.672-.405-1.197-.405-.543 0-1.085.148-1.527.433l-.166-.304h-1.04v4.6h1.62V5.195c.166-.046.35-.083.534-.083.395 0 .543.175.543.506V8.58h1.628V5.185c.166-.046.34-.074.524-.074.387 0 .543.175.543.506V8.58h1.629V5.277c0-.893-.598-1.427-1.601-1.427zM111.934 3.896l-1.508.194c-.34-.157-.782-.24-1.316-.24-1.39 0-2.217.709-2.217 1.712 0 .644.33 1.122.929 1.38-.359.22-.561.561-.561.975 0 .276.092.497.248.681-.377.156-.736.488-.736 1.021 0 .856.736 1.39 2.273 1.39 1.573 0 2.695-.81 2.695-1.942 0-.865-.552-1.398-1.748-1.398h-1.03c-.258 0-.405-.083-.405-.258 0-.129.064-.202.175-.258.11.01.23.019.35.019 1.435 0 2.244-.653 2.244-1.675 0-.147-.018-.294-.046-.423l.653.12zm-2.824 2.236c-.368 0-.589-.248-.589-.616s.23-.626.607-.626c.36 0 .57.258.57.626s-.22.616-.588.616zm-.34 2.972h.782c.368 0 .506.083.506.304 0 .294-.35.515-.985.515-.543 0-.856-.166-.856-.479a.49.49 0 01.148-.377c.128.028.266.037.404.037zM114.906 3.85c-.478 0-.865.175-1.196.516l-.239-.387h-1.04v4.6h1.629V5.37c.202-.074.441-.11.708-.11.166 0 .313.018.525.064l.23-1.353a1.629 1.629 0 00-.617-.12zM117.924 3.85c-.644 0-1.325.092-1.96.258l.258 1.242c.423-.11.883-.175 1.233-.175.672 0 .966.212.966.681v.028h-.773c-1.178 0-1.803.533-1.803 1.407 0 .829.671 1.417 1.683 1.417.57 0 .967-.138 1.325-.414l.203.286h.993V5.525c0-.939-.607-1.675-2.125-1.675zm-.414 3.331c0-.24.156-.386.497-.386h.414v.726a1.16 1.16 0 01-.396.074c-.34 0-.515-.166-.515-.414zM123.665 3.85c-.589 0-1.131.157-1.564.451l-.184-.322h-1.04v4.6h1.629V5.204a2.08 2.08 0 01.589-.101c.386 0 .543.175.543.506V8.58h1.619V5.295c0-.91-.58-1.445-1.592-1.445zM128.919 1.68v2.28a2.064 2.064 0 00-.718-.11c-1.334 0-2.282 1.003-2.282 2.494 0 1.472.92 2.364 2.218 2.364.543 0 .92-.156 1.214-.404l.157.276h1.04v-6.9zm-1.325 4.618c0-.819.34-1.251.874-1.251.166 0 .313.027.45.082v2.245a1.054 1.054 0 01-.46.092c-.533 0-.864-.45-.864-1.168zM135.525 7.255a3.65 3.65 0 01-1.196.211c-.727 0-1.178-.239-1.344-.791h2.678a3.24 3.24 0 00.12-.874c0-1.251-.764-1.95-2.034-1.95-1.527 0-2.466 1.02-2.466 2.456 0 1.49.966 2.401 2.724 2.401.635 0 1.242-.11 1.794-.377zm-1.831-2.328c.35 0 .589.267.589.653v.083h-1.325c.101-.45.368-.736.736-.736zM140.87 3.85c-.542 0-.92.157-1.214.405l-.157-.276h-1.04v6.9h1.63V8.599c.202.074.432.11.717.11 1.334 0 2.282-1.002 2.282-2.493 0-1.472-.911-2.365-2.218-2.365zm-.33 3.662c-.157 0-.304-.027-.452-.083V5.185c.138-.065.286-.092.46-.092.534 0 .865.45.865 1.168 0 .819-.34 1.251-.874 1.251zM146.188 7.393a.794.794 0 01-.257.036c-.295 0-.47-.138-.47-.496V1.679h-1.619v5.557c0 1.05.589 1.472 1.472 1.472a2.67 2.67 0 001.095-.211zM148.82 3.85c-.644 0-1.325.092-1.96.258l.258 1.242c.423-.11.883-.175 1.232-.175.672 0 .967.212.967.681v.028h-.773c-1.178 0-1.804.533-1.804 1.407 0 .829.672 1.417 1.684 1.417.57 0 .966-.138 1.325-.414l.202.286h.994V5.525c0-.939-.607-1.675-2.125-1.675zm-.414 3.331c0-.24.156-.386.497-.386h.414v.726a1.16 1.16 0 01-.396.074c-.34 0-.515-.166-.515-.414zM154.56 3.85c-.588 0-1.13.157-1.563.451l-.184-.322h-1.04v4.6h1.629V5.204a2.08 2.08 0 01.588-.101c.387 0 .543.175.543.506V8.58h1.62V5.295c0-.91-.58-1.445-1.592-1.445zM159.207 8.708c1.472 0 2.392-.993 2.392-2.475 0-1.554-.91-2.383-2.383-2.383-1.509 0-2.401.967-2.401 2.521 0 1.473.91 2.337 2.392 2.337zm0-1.205c-.46 0-.727-.432-.727-1.205 0-.8.267-1.242.736-1.242.46 0 .718.441.718 1.242 0 .773-.267 1.205-.727 1.205zM166.76 3.85c-1.738 0-2.723.948-2.723 2.503 0 1.481.994 2.355 2.54 2.355.478 0 .902-.055 1.426-.22l-.24-1.233c-.284.073-.533.11-.763.11-.819 0-1.288-.386-1.288-1.058 0-.68.488-1.122 1.26-1.122.212 0 .451.027.737.092l.211-1.289a4.875 4.875 0 00-1.16-.138zM170.754 8.708c1.472 0 2.392-.993 2.392-2.475 0-1.554-.91-2.383-2.383-2.383-1.509 0-2.401.967-2.401 2.521 0 1.473.91 2.337 2.392 2.337zm0-1.205c-.46 0-.727-.432-.727-1.205 0-.8.267-1.242.736-1.242.46 0 .718.441.718 1.242 0 .773-.267 1.205-.727 1.205zM179.283 3.85c-.534 0-1.058.138-1.49.405-.267-.257-.672-.405-1.197-.405-.543 0-1.085.148-1.527.433l-.166-.304h-1.04v4.6h1.62V5.195c.166-.046.35-.083.534-.083.395 0 .543.175.543.506V8.58h1.628V5.185c.166-.046.34-.074.524-.074.387 0 .543.175.543.506V8.58h1.629V5.277c0-.893-.598-1.427-1.601-1.427zM182.577 5.764c.524 0 .91-.395.91-.92a.885.885 0 00-.91-.91c-.525 0-.92.386-.92.91a.9.9 0 00.92.92zm0 2.944c.524 0 .91-.386.91-.91a.885.885 0 00-.91-.911c-.525 0-.92.386-.92.91 0 .525.395.911.92.911z"/></g></svg>