<svg width="300" height="22" viewBox="0 0 300 22" xmlns="http://www.w3.org/2000/svg"><g fill="#fff"><path d="M70.398 5.826c-.288 0-.612.024-.996.084l.06-1.356h3.432V2.778H67.53l-.204 4.536.984.552c.504-.18.912-.3 1.488-.3.804 0 1.32.324 1.32.972 0 .624-.492 1.032-1.5 1.032-.6 0-1.32-.132-2.136-.396l-.42 1.68a7.844 7.844 0 002.724.504c2.304 0 3.528-1.224 3.528-2.928 0-1.572-1.044-2.604-2.916-2.604zM77.478 11.358c2.304 0 3.468-1.584 3.468-4.416 0-2.772-1.116-4.32-3.324-4.32-2.304 0-3.48 1.584-3.48 4.392 0 2.784 1.116 4.344 3.336 4.344zm.048-1.788c-.72 0-1.164-.876-1.164-2.592 0-1.656.444-2.568 1.164-2.568.756 0 1.2.912 1.2 2.556 0 1.728-.444 2.604-1.2 2.604zM83.79 2.622c-1.224 0-2.16.768-2.16 2.064 0 1.284.936 2.016 2.148 2.016 1.224 0 2.16-.768 2.16-2.052 0-1.296-.924-2.028-2.148-2.028zm7.056.168h-2.052l-6.336 8.136v.264h2.124l6.264-8.136zm-7.056.912c.276 0 .408.312.408.948 0 .648-.132.972-.408.972-.288 0-.42-.324-.42-.972 0-.636.132-.948.42-.948zm5.784 3.576c-1.224 0-2.16.768-2.16 2.064 0 1.284.948 2.016 2.148 2.016 1.224 0 2.16-.768 2.16-2.052 0-1.296-.924-2.028-2.148-2.028zm0 1.08c.288 0 .408.312.408.948 0 .648-.12.972-.408.972s-.42-.324-.42-.972c0-.636.132-.948.42-.948zM98.67 2.19v2.976a2.693 2.693 0 00-.936-.144c-1.74 0-2.976 1.308-2.976 3.252 0 1.92 1.2 3.084 2.892 3.084.708 0 1.2-.204 1.584-.528l.204.36h1.356v-9zm-1.728 6.024c0-1.068.444-1.632 1.14-1.632.216 0 .408.036.588.108v2.928c-.18.084-.372.12-.6.12-.696 0-1.128-.588-1.128-1.524zM107.286 9.462c-.576.192-1.056.276-1.56.276-.948 0-1.536-.312-1.752-1.032h3.492c.12-.396.156-.852.156-1.14 0-1.632-.996-2.544-2.652-2.544-1.992 0-3.216 1.332-3.216 3.204 0 1.944 1.26 3.132 3.552 3.132.828 0 1.62-.144 2.34-.492zm-2.388-3.036c.456 0 .768.348.768.852v.108h-1.728c.132-.588.48-.96.96-.96zM114.786 2.19v2.976a2.693 2.693 0 00-.936-.144c-1.74 0-2.976 1.308-2.976 3.252 0 1.92 1.2 3.084 2.892 3.084.708 0 1.2-.204 1.584-.528l.204.36h1.356v-9zm-1.728 6.024c0-1.068.444-1.632 1.14-1.632.216 0 .408.036.588.108v2.928c-.18.084-.372.12-.6.12-.696 0-1.128-.588-1.128-1.524zM123.402 9.462c-.576.192-1.056.276-1.56.276-.948 0-1.536-.312-1.752-1.032h3.492c.12-.396.156-.852.156-1.14 0-1.632-.996-2.544-2.652-2.544-1.992 0-3.216 1.332-3.216 3.204 0 1.944 1.26 3.132 3.552 3.132.828 0 1.62-.144 2.34-.492zm-2.388-3.036c.456 0 .768.348.768.852v.108h-1.728c.132-.588.48-.96.96-.96zM127.278 5.022c-1.632 0-2.712.744-2.712 2.028 0 2.04 3.012 1.812 3.012 2.424 0 .228-.252.36-.78.36-.588 0-1.284-.156-1.86-.36l-.444 1.464c.768.276 1.548.42 2.388.42 1.788 0 2.76-.792 2.76-2.016 0-2.208-2.964-1.788-2.964-2.484 0-.24.252-.396.708-.396.408 0 .96.12 1.584.336l.456-1.416a6.778 6.778 0 00-2.148-.36zM133.926 5.022c-2.268 0-3.552 1.236-3.552 3.264 0 1.932 1.296 3.072 3.312 3.072.624 0 1.176-.072 1.86-.288l-.312-1.608a3.985 3.985 0 01-.996.144c-1.068 0-1.68-.504-1.68-1.38 0-.888.636-1.464 1.644-1.464.276 0 .588.036.96.12l.276-1.68a6.358 6.358 0 00-1.512-.18zM139.134 11.358c1.92 0 3.12-1.296 3.12-3.228 0-2.028-1.188-3.108-3.108-3.108-1.968 0-3.132 1.26-3.132 3.288 0 1.92 1.188 3.048 3.12 3.048zm0-1.572c-.6 0-.948-.564-.948-1.572 0-1.044.348-1.62.96-1.62.6 0 .936.576.936 1.62 0 1.008-.348 1.572-.948 1.572zM146.826 5.022c-.768 0-1.476.204-2.04.588l-.24-.42h-1.356v6h2.124V6.786c.24-.072.504-.132.768-.132.504 0 .708.228.708.66v3.876h2.112V6.906c0-1.188-.756-1.884-2.076-1.884zM153.414 9.654c-.108.024-.204.048-.3.048-.516 0-.792-.18-.792-.768V6.63h1.248V5.19h-1.248v-1.8h-1.632l-.48 1.8h-.708v1.332l.708.108v2.712c0 1.368.828 2.016 2.052 2.016.492 0 .936-.072 1.38-.276zM157.338 11.358c1.92 0 3.12-1.296 3.12-3.228 0-2.028-1.188-3.108-3.108-3.108-1.968 0-3.132 1.26-3.132 3.288 0 1.92 1.188 3.048 3.12 3.048zm0-1.572c-.6 0-.948-.564-.948-1.572 0-1.044.348-1.62.96-1.62.6 0 .936.576.936 1.62 0 1.008-.348 1.572-.948 1.572zM169.17 9.462c-.576.192-1.056.276-1.56.276-.948 0-1.536-.312-1.752-1.032h3.492c.12-.396.156-.852.156-1.14 0-1.632-.996-2.544-2.652-2.544-1.992 0-3.216 1.332-3.216 3.204 0 1.944 1.26 3.132 3.552 3.132.828 0 1.62-.144 2.34-.492zm-2.388-3.036c.456 0 .768.348.768.852v.108h-1.728c.132-.588.48-.96.96-.96zM180.066 5.022c-.696 0-1.38.18-1.944.528-.348-.336-.876-.528-1.56-.528a3.7 3.7 0 00-1.992.564l-.216-.396h-1.356v6h2.112V6.774c.216-.06.456-.108.696-.108.516 0 .708.228.708.66v3.864h2.124V6.762c.216-.06.444-.096.684-.096.504 0 .708.228.708.66v3.864h2.124V6.882c0-1.164-.78-1.86-2.088-1.86zM185.742 5.022c-.84 0-1.728.12-2.556.336l.336 1.62a6.816 6.816 0 011.608-.228c.876 0 1.26.276 1.26.888v.036h-1.008c-1.536 0-2.352.696-2.352 1.836 0 1.08.876 1.848 2.196 1.848.744 0 1.26-.18 1.728-.54l.264.372h1.296V7.206c0-1.224-.792-2.184-2.772-2.184zm-.54 4.344c0-.312.204-.504.648-.504h.54v.948c-.168.06-.336.096-.516.096-.444 0-.672-.216-.672-.54zM190.806 2.094c-.756 0-1.26.48-1.26 1.2s.504 1.2 1.26 1.2c.744 0 1.236-.48 1.236-1.2s-.492-1.2-1.236-1.2zm1.056 3.096h-2.124v6h2.124zM195.594 5.022c-1.632 0-2.712.744-2.712 2.028 0 2.04 3.012 1.812 3.012 2.424 0 .228-.252.36-.78.36-.588 0-1.284-.156-1.86-.36l-.444 1.464c.768.276 1.548.42 2.388.42 1.788 0 2.76-.792 2.76-2.016 0-2.208-2.964-1.788-2.964-2.484 0-.24.252-.396.708-.396.408 0 .96.12 1.584.336l.456-1.416a6.778 6.778 0 00-2.148-.36zM203.874 5.022c-1.632 0-2.712.744-2.712 2.028 0 2.04 3.012 1.812 3.012 2.424 0 .228-.252.36-.78.36-.588 0-1.284-.156-1.86-.36l-.444 1.464c.768.276 1.548.42 2.388.42 1.788 0 2.76-.792 2.76-2.016 0-2.208-2.964-1.788-2.964-2.484 0-.24.252-.396.708-.396.408 0 .96.12 1.584.336l.456-1.416a6.778 6.778 0 00-2.148-.36zM209.622 5.022c-.84 0-1.728.12-2.556.336l.336 1.62a6.816 6.816 0 011.608-.228c.876 0 1.26.276 1.26.888v.036h-1.008c-1.536 0-2.352.696-2.352 1.836 0 1.08.876 1.848 2.196 1.848.744 0 1.26-.18 1.728-.54l.264.372h1.296V7.206c0-1.224-.792-2.184-2.772-2.184zm-.54 4.344c0-.312.204-.504.648-.504h.54v.948c-.168.06-.336.096-.516.096-.444 0-.672-.216-.672-.54zM218.754 2.646l-1.368-1.344-2.076 2.388 1.08 1.02zm-1.776 2.544v4.416c-.228.072-.48.12-.744.12-.504 0-.708-.228-.708-.66V5.19h-2.112v4.272c0 1.188.756 1.896 2.076 1.896.756 0 1.476-.204 2.028-.576l.228.408h1.356v-6zM223.95 2.19v2.976a2.693 2.693 0 00-.936-.144c-1.74 0-2.976 1.308-2.976 3.252 0 1.92 1.2 3.084 2.892 3.084.708 0 1.2-.204 1.584-.528l.204.36h1.356v-9zm-1.728 6.024c0-1.068.444-1.632 1.14-1.632.216 0 .408.036.588.108v2.928c-.18.084-.372.12-.6.12-.696 0-1.128-.588-1.128-1.524zM232.566 9.462c-.576.192-1.056.276-1.56.276-.948 0-1.536-.312-1.752-1.032h3.492c.12-.396.156-.852.156-1.14 0-1.632-.996-2.544-2.652-2.544-1.992 0-3.216 1.332-3.216 3.204 0 1.944 1.26 3.132 3.552 3.132.828 0 1.62-.144 2.34-.492zm-2.388-3.036c.456 0 .768.348.768.852v.108h-1.728c.132-.588.48-.96.96-.96z"/></g></svg>